<?xml version="1.0" encoding="UTF-8" standalone="no"?>
<!DOCTYPE svg PUBLIC "-//W3C//DTD SVG 1.1//EN" "http://www.w3.org/Graphics/SVG/1.1/DTD/svg11.dtd">
<svg xmlns="http://www.w3.org/2000/svg" version="1.1" viewBox="0.00 0.00 1024.00 1024.00">
<g stroke-width="2.00" fill="none" stroke-linecap="butt">
<path stroke="#18161f" vector-effect="non-scaling-stroke" d="
  M 29.39 0.00
  Q 18.04 0.55 6.69 1.17
  C 4.35 1.30 2.47 1.00 2.46 3.68
  Q 2.45 5.45 2.37 18.00
  Q 2.12 57.46 2.27 282.95
  Q 2.33 371.20 2.33 461.23
  Q 2.33 486.18 2.20 992.50
  Q 2.20 1003.45 2.56 1018.63
  Q 2.61 1020.90 3.16 1021.55
  Q 4.11 1022.68 5.91 1022.61
  Q 10.39 1022.44 22.00 1022.41
  Q 133.68 1022.14 652.68 1022.22
  Q 681.72 1022.22 682.36 1022.23
  C 708.34 1022.52 729.77 1022.12 756.51 1022.25
  Q 790.94 1022.41 827.75 1022.31
  Q 925.81 1022.04 1021.08 1022.37
  A 1.19 1.19 0.0 0 0 1022.27 1021.18
  L 1022.27 2.36
  A 0.74 0.74 0.0 0 0 1022.14 1.94
  Q 1021.34 0.84 1019.43 0.82
  Q 1014.83 0.79 1004.13 0.00"
/>
<path stroke="#6b365c" vector-effect="non-scaling-stroke" d="
  M 448.02 222.64
  Q 420.92 225.68 395.65 235.40"
/>
<path stroke="#612e59" vector-effect="non-scaling-stroke" d="
  M 395.65 235.40
  Q 392.45 236.53 389.32 237.85
  Q 362.30 249.24 338.89 266.97"
/>
<path stroke="#542959" vector-effect="non-scaling-stroke" d="
  M 338.89 266.97
  Q 319.73 281.87 303.95 300.44
  Q 302.11 302.60 300.39 304.95"
/>
<path stroke="#46295c" vector-effect="non-scaling-stroke" d="
  M 300.39 304.95
  C 281.77 327.79 268.26 355.17 260.39 383.41"
/>
<path stroke="#3b2960" vector-effect="non-scaling-stroke" d="
  M 260.39 383.41
  Q 247.58 429.69 257.70 477.27"
/>
<path stroke="#151527" vector-effect="non-scaling-stroke" d="
  M 257.70 477.27
  L 256.92 489.58"
/>
<path stroke="#1e142d" vector-effect="non-scaling-stroke" d="
  M 256.92 489.58
  Q 256.43 505.10 258.92 520.50"
/>
<path stroke="#211b37" vector-effect="non-scaling-stroke" d="
  M 258.92 520.50
  C 261.34 538.27 267.46 556.01 275.16 572.13"
/>
<path stroke="#271d3f" vector-effect="non-scaling-stroke" d="
  M 275.16 572.13
  Q 279.72 581.73 285.39 590.61
  Q 308.74 627.15 345.21 650.53
  Q 377.84 671.45 415.89 678.09"
/>
<path stroke="#211b37" vector-effect="non-scaling-stroke" d="
  M 415.89 678.09
  Q 448.58 684.22 481.23 679.15"
/>
<path stroke="#1e142d" vector-effect="non-scaling-stroke" d="
  M 481.23 679.15
  Q 497.03 676.77 511.65 672.60"
/>
<path stroke="#453768" vector-effect="non-scaling-stroke" d="
  M 511.65 672.60
  C 566.77 681.13 624.52 670.10 671.14 639.32"
/>
<path stroke="#4b3e6b" vector-effect="non-scaling-stroke" d="
  M 671.14 639.32
  Q 701.40 619.75 724.09 592.09"
/>
<path stroke="#584a6f" vector-effect="non-scaling-stroke" d="
  M 724.09 592.09
  Q 754.03 555.82 767.00 511.14"
/>
<path stroke="#635073" vector-effect="non-scaling-stroke" d="
  M 767.00 511.14
  Q 780.59 463.38 773.32 414.64
  Q 764.46 355.16 727.30 308.18
  Q 681.24 249.94 609.49 230.01"
/>
<path stroke="#211b37" vector-effect="non-scaling-stroke" d="
  M 609.49 230.01
  C 582.92 223.37 554.86 220.07 528.01 223.72
  Q 526.73 223.89 522.25 225.15
  A 1.73 1.60 -65.8 0 0 521.83 225.33
  Q 520.12 226.30 517.94 226.13"
/>
<path stroke="#824664" vector-effect="non-scaling-stroke" d="
  M 517.94 226.13
  Q 515.70 225.85 508.38 224.38
  Q 503.66 223.43 492.98 222.40"
/>
<path stroke="#753e60" vector-effect="non-scaling-stroke" d="
  M 492.98 222.40
  Q 470.36 220.21 448.02 222.64"
/>
<path stroke="#ea76b0" vector-effect="non-scaling-stroke" d="
  M 492.98 222.40
  L 491.31 222.46
  A 0.50 0.49 -2.8 0 0 490.83 222.98
  C 492.38 250.21 491.94 275.88 495.06 304.57"
/>
<path stroke="#864579" vector-effect="non-scaling-stroke" d="
  M 495.06 304.57
  Q 470.66 302.92 446.42 306.33"
/>
<path stroke="#d367a8" vector-effect="non-scaling-stroke" d="
  M 446.42 306.33
  Q 446.45 264.61 448.02 222.64"
/>
<path stroke="#7c3d75" vector-effect="non-scaling-stroke" d="
  M 446.42 306.33
  Q 424.24 309.89 402.80 316.97"
/>
<path stroke="#be57a1" vector-effect="non-scaling-stroke" d="
  M 402.80 316.97
  Q 400.60 291.10 398.61 255.35
  Q 398.10 246.18 395.65 235.40"
/>
<path stroke="#934d7d" vector-effect="non-scaling-stroke" d="
  M 617.05 279.42
  C 656.00 317.22 677.30 366.27 677.65 420.93"
/>
<path stroke="#e264a4" vector-effect="non-scaling-stroke" d="
  M 677.65 420.93
  L 677.07 421.61
  A 0.31 0.31 0.0 0 1 676.56 421.55
  L 666.11 400.47"
/>
<path stroke="#d6609b" vector-effect="non-scaling-stroke" d="
  M 666.11 400.47
  Q 653.05 379.55 634.90 363.27"
/>
<path stroke="#c962a9" vector-effect="non-scaling-stroke" d="
  M 634.90 363.27
  L 625.07 354.79"
/>
<path stroke="#ba61ac" vector-effect="non-scaling-stroke" d="
  M 625.07 354.79
  Q 602.45 336.48 576.02 324.75"
/>
<path stroke="#b062b0" vector-effect="non-scaling-stroke" d="
  M 576.02 324.75
  Q 567.67 320.86 555.41 316.65
  Q 530.85 308.22 506.20 305.89"
/>
<path stroke="#934d7d" vector-effect="non-scaling-stroke" d="
  M 506.20 305.89
  L 495.06 304.57"
/>
<path stroke="#4c3079" vector-effect="non-scaling-stroke" d="
  M 506.20 305.89
  Q 524.20 311.96 538.49 319.52
  Q 545.49 323.22 552.36 328.92"
/>
<path stroke="#1e142d" vector-effect="non-scaling-stroke" d="
  M 552.36 328.92
  Q 549.95 329.36 547.68 329.10
  Q 521.61 326.17 496.24 333.50"
/>
<path stroke="#322250" vector-effect="non-scaling-stroke" d="
  M 496.24 333.50
  C 470.06 327.11 439.28 327.39 414.25 338.28
  C 400.92 344.08 387.45 355.35 384.03 369.52
  C 380.53 383.98 389.37 394.58 399.30 403.73"
/>
<path stroke="#1e142d" vector-effect="non-scaling-stroke" d="
  M 399.30 403.73
  Q 390.60 415.81 386.36 424.13
  Q 383.03 430.65 379.64 436.99"
/>
<path stroke="#261c40" vector-effect="non-scaling-stroke" d="
  M 379.64 436.99
  Q 367.51 420.34 362.93 400.78
  Q 360.98 392.43 360.32 379.95
  Q 359.58 366.04 358.06 354.68
  A 1.53 1.52 59.1 0 1 358.33 353.59
  Q 365.94 343.12 377.18 332.01
  C 378.69 330.53 379.70 328.44 377.41 326.95"
/>
<path stroke="#723572" vector-effect="non-scaling-stroke" d="
  M 402.80 316.97
  L 382.05 324.61"
/>
<path stroke="#a84a9e" vector-effect="non-scaling-stroke" d="
  M 382.05 324.61
  C 368.59 303.64 355.33 286.66 338.89 266.97"
/>
<path stroke="#775d95" vector-effect="non-scaling-stroke" d="
  M 609.49 230.01
  Q 607.60 230.70 610.81 233.45
  Q 617.26 238.98 623.43 244.82
  Q 632.78 253.67 645.79 271.33"
/>
<path stroke="#322250" vector-effect="non-scaling-stroke" d="
  M 645.79 271.33
  Q 630.87 273.37 617.05 279.42"
/>
<path stroke="#965387" vector-effect="non-scaling-stroke" d="
  M 617.05 279.42
  C 589.28 252.70 555.22 235.25 517.94 226.13"
/>
<path stroke="#695188" vector-effect="non-scaling-stroke" d="
  M 693.99 397.51
  Q 696.41 428.47 691.85 458.96"
/>
<path stroke="#322250" vector-effect="non-scaling-stroke" d="
  M 691.85 458.96
  Q 687.20 462.27 682.09 464.54
  Q 677.09 466.77 675.45 471.64
  Q 674.07 475.76 673.51 481.30"
/>
<path stroke="#1e142d" vector-effect="non-scaling-stroke" d="
  M 673.51 481.30
  L 673.96 457.02"
/>
<path stroke="#7e326d" vector-effect="non-scaling-stroke" d="
  M 673.96 457.02
  Q 677.39 439.25 677.65 420.93"
/>
<path stroke="#a84390" vector-effect="non-scaling-stroke" d="
  M 634.90 363.27
  Q 610.36 366.29 586.38 371.94"
/>
<path stroke="#c1458b" vector-effect="non-scaling-stroke" d="
  M 666.11 400.47
  Q 640.76 404.27 615.97 409.70
  C 610.31 410.94 602.73 412.25 596.08 413.29
  A 0.63 0.62 87.1 0 0 595.56 413.87
  L 595.34 417.02"
/>
<path stroke="#8d45a1" vector-effect="non-scaling-stroke" d="
  M 625.07 354.79
  L 579.89 359.27"
/>
<path stroke="#46295c" vector-effect="non-scaling-stroke" d="
  M 579.89 359.27
  Q 570.40 343.89 556.41 332.09"
/>
<path stroke="#7445a8" vector-effect="non-scaling-stroke" d="
  M 576.02 324.75
  L 556.41 332.09"
/>
<path stroke="#3b2960" vector-effect="non-scaling-stroke" d="
  M 556.41 332.09
  L 552.36 328.92"
/>
<path stroke="#6d2b54" vector-effect="non-scaling-stroke" d="
  M 673.96 457.02
  Q 670.01 472.07 666.59 481.06
  Q 654.70 512.38 631.10 538.65"
/>
<path stroke="#c14c99" vector-effect="non-scaling-stroke" d="
  M 631.10 538.65
  Q 622.49 526.02 614.72 517.43
  Q 600.88 502.15 597.25 497.84
  Q 586.45 485.03 579.41 469.65"
/>
<path stroke="#542959" vector-effect="non-scaling-stroke" d="
  M 579.89 359.27
  L 586.38 371.94"
/>
<path stroke="#61274b" vector-effect="non-scaling-stroke" d="
  M 586.38 371.94
  Q 595.62 393.69 595.34 417.02"
/>
<path stroke="#6d2b54" vector-effect="non-scaling-stroke" d="
  M 595.34 417.02
  Q 594.48 445.71 579.41 469.65"
/>
<path stroke="#612e59" vector-effect="non-scaling-stroke" d="
  M 579.41 469.65
  Q 567.69 487.24 549.98 498.99"
/>
<path stroke="#542959" vector-effect="non-scaling-stroke" d="
  M 549.98 498.99
  Q 525.46 514.57 495.97 517.01"
/>
<path stroke="#46295c" vector-effect="non-scaling-stroke" d="
  M 495.97 517.01
  C 467.64 518.85 441.13 512.14 415.94 499.44"
/>
<path stroke="#3b2960" vector-effect="non-scaling-stroke" d="
  M 415.94 499.44
  Q 392.02 487.62 371.65 470.09
  Q 370.43 469.04 369.44 467.82"
/>
<path stroke="#18161f" vector-effect="non-scaling-stroke" d="
  M 369.44 467.82
  L 370.39 462.47"
/>
<path stroke="#211b37" vector-effect="non-scaling-stroke" d="
  M 496.24 333.50
  Q 473.47 340.36 455.63 351.13
  Q 422.76 370.97 399.30 403.73"
/>
<path stroke="#151527" vector-effect="non-scaling-stroke" d="
  M 379.64 436.99
  Q 378.68 439.60 375.46 446.69
  Q 372.67 452.86 370.39 462.47"
/>
<path stroke="#1f1d32" vector-effect="non-scaling-stroke" d="
  M 370.39 462.47
  L 367.94 466.58"
/>
<path stroke="#433173" vector-effect="non-scaling-stroke" d="
  M 367.94 466.58
  L 349.04 449.18"
/>
<path stroke="#2f2551" vector-effect="non-scaling-stroke" d="
  M 349.04 449.18
  L 334.25 433.39
  A 8.80 6.97 59.4 0 1 333.46 432.44
  L 329.10 426.52
  A 0.75 0.75 0.0 0 0 327.75 426.87
  Q 324.24 454.18 327.89 479.93"
/>
<path stroke="#261c40" vector-effect="non-scaling-stroke" d="
  M 327.89 479.93
  C 312.88 483.69 300.64 484.61 282.70 485.98
  Q 270.77 486.90 256.92 489.58"
/>
<path stroke="#433173" vector-effect="non-scaling-stroke" d="
  M 257.70 477.27
  Q 258.98 474.23 259.27 468.49
  Q 259.55 462.93 262.83 451.81
  Q 267.80 434.92 275.72 419.17
  Q 277.25 416.12 280.88 410.37"
/>
<path stroke="#653072" vector-effect="non-scaling-stroke" d="
  M 382.05 324.61
  L 377.41 326.95"
/>
<path stroke="#5c316b" vector-effect="non-scaling-stroke" d="
  M 377.41 326.95
  Q 353.43 338.28 332.13 354.31"
/>
<path stroke="#8d45a1" vector-effect="non-scaling-stroke" d="
  M 332.13 354.31
  Q 326.54 342.15 319.98 332.96
  Q 306.59 314.19 300.39 304.95"
/>
<path stroke="#ae8cce" vector-effect="non-scaling-stroke" d="
  M 767.00 511.14
  Q 760.96 494.24 750.32 482.95
  Q 741.25 473.32 731.91 464.24
  C 719.42 452.10 708.59 438.21 701.68 422.11
  Q 696.63 410.33 693.99 397.51"
/>
<path stroke="#74578c" vector-effect="non-scaling-stroke" d="
  M 693.99 397.51
  C 689.28 351.66 673.30 308.45 645.79 271.33"
/>
<path stroke="#5f4c8d" vector-effect="non-scaling-stroke" d="
  M 672.90 525.23
  Q 666.68 539.57 658.81 553.03"
/>
<path stroke="#322250" vector-effect="non-scaling-stroke" d="
  M 658.81 553.03
  Q 658.33 548.86 660.02 544.95"
/>
<path stroke="#211b37" vector-effect="non-scaling-stroke" d="
  M 673.51 481.30
  C 672.55 491.81 671.76 503.11 669.79 512.80
  Q 666.42 529.33 660.02 544.95"
/>
<path stroke="#1e142d" vector-effect="non-scaling-stroke" d="
  M 660.02 544.95
  L 651.91 556.21"
/>
<path stroke="#151527" vector-effect="non-scaling-stroke" d="
  M 651.91 556.21
  L 648.28 558.60
  A 4.95 4.80 -83.7 0 0 647.47 559.27
  Q 635.90 571.19 623.80 580.78
  Q 606.24 594.68 584.74 604.42
  C 570.57 610.84 556.38 615.90 540.67 619.12"
/>
<path stroke="#1e142d" vector-effect="non-scaling-stroke" d="
  M 540.67 619.12
  Q 507.10 626.37 472.97 622.09"
/>
<path stroke="#211b37" vector-effect="non-scaling-stroke" d="
  M 472.97 622.09
  Q 438.61 617.34 408.62 600.39"
/>
<path stroke="#271d3f" vector-effect="non-scaling-stroke" d="
  M 408.62 600.39
  Q 390.39 589.97 375.76 575.31"
/>
<path stroke="#211b37" vector-effect="non-scaling-stroke" d="
  M 375.76 575.31
  Q 361.00 560.97 350.50 543.28
  Q 349.06 540.86 349.94 540.10"
/>
<path stroke="#46295c" vector-effect="non-scaling-stroke" d="
  M 499.23 601.57
  Q 527.58 599.80 554.32 590.29"
/>
<path stroke="#542959" vector-effect="non-scaling-stroke" d="
  M 554.32 590.29
  Q 584.75 579.06 609.71 558.79"
/>
<path stroke="#612e59" vector-effect="non-scaling-stroke" d="
  M 609.71 558.79
  Q 621.21 549.32 631.10 538.65"
/>
<path stroke="#967bc6" vector-effect="non-scaling-stroke" d="
  M 724.09 592.09
  Q 716.89 579.88 709.98 572.42
  Q 697.37 558.81 684.75 545.21
  Q 676.61 536.45 672.90 525.23"
/>
<path stroke="#6c5792" vector-effect="non-scaling-stroke" d="
  M 672.90 525.23
  C 681.99 504.19 688.66 481.71 691.85 458.96"
/>
<path stroke="#a84a9e" vector-effect="non-scaling-stroke" d="
  M 609.71 558.79
  Q 580.85 527.87 549.98 498.99"
/>
<path stroke="#8d45a1" vector-effect="non-scaling-stroke" d="
  M 554.32 590.29
  C 543.52 576.57 533.39 566.09 522.28 554.46
  Q 506.29 537.72 495.97 517.01"
/>
<path stroke="#46326b" vector-effect="non-scaling-stroke" d="
  M 367.94 466.58
  L 369.44 467.82"
/>
<path stroke="#7445a8" vector-effect="non-scaling-stroke" d="
  M 415.94 499.44
  C 431.61 517.15 447.17 536.96 461.27 553.69
  C 476.55 571.83 485.78 583.21 499.23 601.57"
/>
<path stroke="#3b2960" vector-effect="non-scaling-stroke" d="
  M 499.23 601.57
  Q 441.88 604.23 392.22 575.03
  Q 387.96 572.53 386.37 571.32"
/>
<path stroke="#55398b" vector-effect="non-scaling-stroke" d="
  M 349.04 449.18
  Q 349.79 461.36 351.22 473.38
  C 355.34 508.05 368.35 541.48 386.37 571.32"
/>
<path stroke="#271d3f" vector-effect="non-scaling-stroke" d="
  M 386.37 571.32
  Q 376.60 565.44 371.14 560.60
  Q 366.16 556.20 361.19 551.77
  Q 357.89 548.83 355.37 546.13
  Q 352.67 543.23 349.94 540.10"
/>
<path stroke="#3b2b61" vector-effect="non-scaling-stroke" d="
  M 349.94 540.10
  Q 344.53 533.12 342.74 528.52
  Q 340.05 521.64 336.80 515.01"
/>
<path stroke="#382458" vector-effect="non-scaling-stroke" d="
  M 336.80 515.01
  Q 330.86 497.89 327.89 479.93"
/>
<path stroke="#4d306f" vector-effect="non-scaling-stroke" d="
  M 332.13 354.31
  Q 329.26 356.63 326.27 359.03
  Q 299.09 380.77 280.88 410.37"
/>
<path stroke="#7445a8" vector-effect="non-scaling-stroke" d="
  M 280.88 410.37
  Q 269.83 397.40 260.39 383.41"
/>
<path stroke="#322250" vector-effect="non-scaling-stroke" d="
  M 336.80 515.01
  C 319.32 517.39 304.66 517.58 288.42 517.90
  Q 273.62 518.19 258.92 520.50"
/>
<path stroke="#261c40" vector-effect="non-scaling-stroke" d="
  M 645.80 572.84
  L 651.91 556.21"
/>
<path stroke="#8368bf" vector-effect="non-scaling-stroke" d="
  M 671.14 639.32
  C 659.18 621.99 645.94 607.64 630.43 593.07"
/>
<path stroke="#53467d" vector-effect="non-scaling-stroke" d="
  M 630.43 593.07
  L 645.80 572.84"
/>
<path stroke="#5c4584" vector-effect="non-scaling-stroke" d="
  M 645.80 572.84
  Q 653.07 563.34 658.81 553.03"
/>
<path stroke="#3b2b61" vector-effect="non-scaling-stroke" d="
  M 408.62 600.39
  Q 416.18 638.71 415.89 678.09"
/>
<path stroke="#4d3e7b" vector-effect="non-scaling-stroke" d="
  M 630.43 593.07
  Q 594.65 634.56 545.22 659.21"
/>
<path stroke="#261c40" vector-effect="non-scaling-stroke" d="
  M 545.22 659.21
  Q 546.19 638.53 540.67 619.12"
/>
<path stroke="#322250" vector-effect="non-scaling-stroke" d="
  M 472.97 622.09
  Q 479.73 650.27 481.23 679.15"
/>
<path stroke="#3b2b61" vector-effect="non-scaling-stroke" d="
  M 375.76 575.31
  Q 353.90 572.33 331.86 571.98
  Q 303.58 571.52 275.16 572.13"
/>
<path stroke="#563e81" vector-effect="non-scaling-stroke" d="
  M 511.65 672.60
  Q 529.62 666.98 545.22 659.21"
/>
<path stroke="#868689" vector-effect="non-scaling-stroke" d="
  M 782.64 738.68
  A 7.11 7.11 0.0 0 0 775.53 731.57
  A 7.11 7.11 0.0 0 0 768.42 738.68
  A 7.11 7.11 0.0 0 0 775.53 745.79
  A 7.11 7.11 0.0 0 0 782.64 738.68"
/>
<path stroke="#868689" vector-effect="non-scaling-stroke" d="
  M 512.34 769.76
  A 0.60 0.60 0.0 0 1 512.62 768.83
  Q 524.36 764.67 525.81 753.24
  Q 527.04 743.57 519.72 738.34
  C 517.31 736.61 511.97 734.88 509.12 734.59
  Q 496.81 733.36 483.50 735.43
  A 0.64 0.63 85.8 0 0 482.96 736.06
  L 482.96 797.04
  A 0.52 0.51 -0.0 0 0 483.48 797.55
  L 494.39 797.55
  A 0.72 0.72 0.0 0 0 495.11 796.83
  L 495.11 773.06
  A 0.72 0.72 0.0 0 1 495.70 772.35
  Q 501.67 771.24 504.58 776.19
  Q 504.72 776.42 509.15 784.61
  Q 512.13 790.11 517.07 796.52
  A 2.78 2.76 -18.6 0 0 519.27 797.60
  L 531.44 797.60
  A 0.70 0.69 -17.8 0 0 532.01 796.50
  Q 515.30 773.12 514.77 772.19
  C 514.17 771.14 513.00 770.63 512.34 769.76"
/>
<path stroke="#868689" vector-effect="non-scaling-stroke" d="
  M 273.84 770.31
  Q 279.86 770.31 286.66 770.36
  A 0.42 0.42 0.0 0 1 287.07 770.78
  L 287.07 796.94
  A 0.60 0.60 0.0 0 0 287.67 797.54
  L 298.72 797.54
  A 0.51 0.51 0.0 0 0 299.23 797.03
  L 299.23 734.91
  A 0.52 0.51 0.0 0 0 298.71 734.40
  L 287.66 734.40
  A 0.59 0.59 0.0 0 0 287.07 734.99
  L 287.07 758.87
  A 0.40 0.39 88.8 0 1 286.70 759.27
  Q 285.24 759.32 273.84 759.32
  Q 262.44 759.32 260.99 759.27
  A 0.40 0.39 -88.8 0 1 260.61 758.87
  L 260.62 734.99
  A 0.59 0.59 0.0 0 0 260.03 734.40
  L 248.98 734.40
  A 0.52 0.51 0.0 0 0 248.46 734.91
  L 248.45 797.03
  A 0.51 0.51 0.0 0 0 248.96 797.54
  L 260.01 797.54
  A 0.60 0.60 0.0 0 0 260.61 796.94
  L 260.61 770.78
  A 0.42 0.42 0.0 0 1 261.03 770.36
  Q 267.83 770.31 273.84 770.31"
/>
<path stroke="#868689" vector-effect="non-scaling-stroke" d="
  M 728.96 734.46
  A 0.31 0.31 0.0 0 0 728.66 734.68
  L 708.80 797.12
  A 0.31 0.31 0.0 0 0 709.09 797.52
  L 721.30 797.52
  A 0.31 0.31 0.0 0 0 721.60 797.29
  L 726.20 780.81
  A 0.31 0.31 0.0 0 1 726.50 780.58
  L 745.44 780.58
  A 0.31 0.31 0.0 0 1 745.74 780.81
  L 750.24 797.30
  A 0.31 0.31 0.0 0 0 750.54 797.53
  L 763.43 797.53
  A 0.31 0.31 0.0 0 0 763.72 797.13
  L 743.98 734.68
  A 0.31 0.31 0.0 0 0 743.68 734.46
  L 728.96 734.46"
/>
<path stroke="#868689" vector-effect="non-scaling-stroke" d="
  M 578.24 762.15
  L 582.55 762.15
  A 0.76 0.76 0.0 0 1 583.31 762.90
  Q 583.43 769.03 583.38 781.00
  C 583.36 786.88 583.58 791.82 588.08 795.72
  C 592.12 799.21 599.51 798.73 604.37 797.53
  A 1.52 1.52 0.0 0 0 605.53 796.05
  L 605.53 788.97
  A 0.96 0.96 0.0 0 0 604.32 788.04
  C 596.11 790.27 594.80 784.02 595.08 777.33
  Q 595.12 776.41 595.11 762.63
  A 0.46 0.46 0.0 0 1 595.57 762.17
  L 605.02 762.17
  A 1.00 1.00 0.0 0 0 606.02 761.17
  L 606.02 754.07
  A 1.12 1.12 0.0 0 0 604.90 752.95
  L 596.13 752.95
  A 0.86 0.86 0.0 0 1 595.27 752.09
  L 595.27 740.80
  A 0.58 0.58 0.0 0 0 594.53 740.24
  L 584.12 743.07
  A 0.74 0.74 0.0 0 0 583.58 743.78
  L 583.58 752.53
  A 0.57 0.56 90.0 0 1 583.02 753.10
  L 578.06 753.10
  A 0.94 0.94 0.0 0 0 577.12 754.04
  L 577.12 761.02
  A 1.13 1.12 -90.0 0 0 578.24 762.15"
/>
<path stroke="#868689" vector-effect="non-scaling-stroke" d="
  M 331.50 798.26
  C 344.85 797.40 353.22 789.10 353.68 775.79
  C 354.20 760.99 344.02 751.29 329.47 752.22
  C 316.13 753.09 307.76 761.38 307.30 774.69
  C 306.78 789.50 316.96 799.20 331.50 798.26"
/>
<path stroke="#868689" vector-effect="non-scaling-stroke" d="
  M 361.16 753.49
  L 361.16 796.75
  A 0.80 0.80 0.0 0 0 361.96 797.55
  L 372.22 797.55
  A 0.93 0.92 0.0 0 0 373.15 796.63
  Q 373.20 778.95 373.10 773.55
  Q 372.99 767.61 374.59 765.25
  Q 377.02 761.63 382.29 762.06
  C 387.69 762.50 388.79 767.47 388.87 771.98
  Q 389.03 781.11 388.86 796.82
  A 0.70 0.70 0.0 0 0 389.56 797.53
  L 400.00 797.53
  A 0.90 0.90 0.0 0 0 400.90 796.62
  Q 400.71 777.49 400.97 770.35
  Q 401.23 763.05 407.76 761.93
  C 415.56 760.58 416.59 768.02 416.59 773.77
  Q 416.57 795.74 416.58 797.04
  A 0.52 0.51 89.4 0 0 417.09 797.55
  L 427.81 797.55
  A 0.81 0.80 -89.6 0 0 428.61 796.75
  Q 428.68 783.14 428.63 769.24
  C 428.60 762.25 425.52 754.71 418.20 752.88
  Q 408.47 750.44 401.16 757.16
  Q 399.01 759.14 398.90 759.23
  A 0.58 0.57 -38.7 0 1 398.05 759.14
  C 395.88 756.03 393.98 753.69 390.01 752.80
  Q 379.24 750.39 372.66 758.76
  A 0.51 0.50 64.3 0 1 371.76 758.44
  L 371.76 754.22
  A 1.20 1.19 -0.0 0 0 370.56 753.03
  L 361.62 753.03
  A 0.46 0.46 0.0 0 0 361.16 753.49"
/>
<path stroke="#868689" vector-effect="non-scaling-stroke" d="
  M 471.22 787.53
  C 463.27 790.14 448.78 791.17 446.86 779.49
  A 0.68 0.68 0.0 0 1 447.53 778.70
  L 475.42 778.70
  A 0.59 0.57 4.6 0 0 476.00 778.22
  C 477.51 769.30 474.84 756.67 465.41 753.62
  Q 454.56 750.13 446.50 754.93
  Q 437.90 760.05 435.92 770.54
  C 434.46 778.26 435.78 788.12 442.26 793.39
  C 450.60 800.16 463.34 799.25 473.22 795.96
  A 1.40 1.39 -16.9 0 0 474.13 794.27
  L 472.48 788.20
  A 0.98 0.98 0.0 0 0 471.22 787.53"
/>
<path stroke="#868689" vector-effect="non-scaling-stroke" d="
  M 561.52 792.75
  L 561.52 796.69
  A 0.86 0.85 -0.0 0 0 562.38 797.54
  L 572.42 797.54
  A 0.57 0.57 0.0 0 0 572.98 796.87
  C 572.04 791.54 572.46 783.21 572.37 769.96
  Q 572.33 763.21 567.84 757.16
  A 3.40 3.35 -0.4 0 0 567.11 756.45
  Q 563.43 753.82 561.30 753.31
  Q 548.95 750.35 536.42 756.26
  A 0.33 0.32 -20.5 0 0 536.24 756.64
  L 538.54 765.06
  A 0.13 0.13 0.0 0 0 538.73 765.14
  Q 543.24 762.50 547.72 761.48
  C 550.52 760.84 556.93 760.76 558.68 763.90
  Q 559.71 765.74 559.69 768.11
  A 0.99 0.98 -1.9 0 1 558.78 769.08
  C 551.47 769.65 546.06 769.95 540.62 773.32
  C 535.34 776.61 533.11 782.32 534.12 788.18
  C 536.44 801.69 553.56 800.68 560.80 792.48
  A 0.41 0.41 0.0 0 1 561.52 792.75"
/>
<path stroke="#868689" vector-effect="non-scaling-stroke" d="
  M 645.83 787.45
  C 637.92 790.09 623.50 791.17 621.53 779.55
  A 0.68 0.68 0.0 0 1 622.20 778.76
  L 649.98 778.64
  A 0.59 0.57 4.4 0 0 650.55 778.16
  C 652.02 769.27 649.31 756.70 639.90 753.70
  Q 629.08 750.27 621.07 755.09
  Q 612.52 760.22 610.60 770.68
  C 609.18 778.38 610.53 788.19 617.01 793.41
  C 625.35 800.12 638.03 799.16 647.86 795.84
  A 1.39 1.38 -17.2 0 0 648.76 794.15
  L 647.09 788.11
  A 0.98 0.97 -17.0 0 0 645.83 787.45"
/>
<path stroke="#868689" vector-effect="non-scaling-stroke" d="
  M 656.75 787.12
  L 654.68 794.54
  A 0.99 0.99 0.0 0 0 655.24 795.70
  C 663.38 799.17 677.42 800.37 683.85 792.85
  Q 688.26 787.69 686.41 780.42
  C 684.75 773.90 676.91 771.26 671.24 769.29
  C 668.36 768.29 665.44 764.36 668.99 762.03
  C 672.84 759.50 679.44 761.27 682.93 763.42
  A 0.15 0.14 -66.7 0 0 683.15 763.33
  L 685.44 755.09
  A 0.36 0.35 -70.8 0 0 685.24 754.66
  C 676.39 750.96 661.55 750.53 657.06 760.66
  C 653.82 767.99 657.61 775.59 665.12 778.43
  Q 672.48 781.21 673.74 782.21
  C 677.12 784.88 674.78 788.77 671.17 789.35
  Q 664.90 790.35 657.72 786.69
  A 0.69 0.68 -68.6 0 0 656.75 787.12"
/>
<path stroke="#868689" vector-effect="non-scaling-stroke" d="
  M 781.3278 753.5806
  A 0.61 0.61 0.0 0 0 780.7189 752.9695
  L 769.8589 752.9506
  A 0.61 0.61 0.0 0 0 769.2478 753.5595
  L 769.1722 796.9194
  A 0.61 0.61 0.0 0 0 769.7811 797.5305
  L 780.6411 797.5494
  A 0.61 0.61 0.0 0 0 781.2522 796.9405
  L 781.3278 753.5806"
/>
<path stroke="#868689" vector-effect="non-scaling-stroke" d="
  M 699.6898 782.9297
  A 7.80 7.56 -81.3 0 0 691.0370 789.4965
  A 7.80 7.56 -81.3 0 0 697.3302 798.3503
  A 7.80 7.56 -81.3 0 0 705.9830 791.7835
  A 7.80 7.56 -81.3 0 0 699.6898 782.9297"
/>
<path stroke="#868689" vector-effect="non-scaling-stroke" d="
  M 494.99 744.58
  L 494.99 761.18
  A 1.07 1.07 0.0 0 0 496.06 762.25
  L 503.05 762.25
  A 9.78 8.66 -0.0 0 0 512.83 753.59
  L 512.83 752.17
  A 9.78 8.66 0.0 0 0 503.05 743.51
  L 496.06 743.51
  A 1.07 1.07 0.0 0 0 494.99 744.58"
/>
<path stroke="#868689" vector-effect="non-scaling-stroke" d="
  M 735.92 771.67
  Q 741.92 771.66 742.75 771.60
  A 0.59 0.58 -9.6 0 0 743.28 770.86
  L 736.18 744.77
  A 0.36 0.23 89.7 0 0 736.13 744.70
  Q 736.01 744.58 735.83 744.58
  Q 735.66 744.58 735.54 744.70
  A 0.36 0.23 89.9 0 0 735.49 744.77
  L 728.55 770.90
  A 0.59 0.58 9.3 0 0 729.08 771.64
  Q 729.91 771.69 735.92 771.67"
/>
<path stroke="#868689" vector-effect="non-scaling-stroke" d="
  M 319.99 775.09
  C 319.92 781.63 322.35 789.30 330.29 789.38
  C 338.23 789.46 340.80 781.83 340.87 775.30
  C 340.93 768.76 338.51 761.09 330.57 761.01
  C 322.62 760.93 320.05 768.56 319.99 775.09"
/>
<path stroke="#868689" vector-effect="non-scaling-stroke" d="
  M 448.24 770.55
  L 464.62 770.43
  A 0.75 0.75 0.0 0 0 465.36 769.68
  L 465.36 769.44
  A 9.31 8.85 89.6 0 0 456.44 760.19
  L 456.26 760.19
  A 9.31 8.85 89.6 0 0 447.48 769.56
  L 447.48 769.80
  A 0.75 0.75 0.0 0 0 448.24 770.55"
/>
<path stroke="#868689" vector-effect="non-scaling-stroke" d="
  M 560.02 776.37
  C 556.04 776.55 550.33 776.96 547.67 779.64
  Q 544.22 783.13 546.83 787.12
  Q 548.05 788.99 550.04 789.21
  Q 558.48 790.18 560.38 781.93
  Q 561.00 779.25 560.71 776.95
  A 0.67 0.66 84.8 0 0 560.02 776.37"
/>
<path stroke="#868689" vector-effect="non-scaling-stroke" d="
  M 622.93 770.53
  L 639.15 770.47
  A 0.72 0.72 0.0 0 0 639.87 769.75
  L 639.86 769.37
  A 9.18 8.79 89.8 0 0 631.04 760.22
  L 630.96 760.22
  A 9.18 8.79 89.8 0 0 622.20 769.43
  L 622.21 769.81
  A 0.72 0.72 0.0 0 0 622.93 770.53"
/>
</g>
<path fill="#221e2a" d="
  M 29.39 0.00
  Q 18.04 0.55 6.69 1.17
  C 4.35 1.30 2.47 1.00 2.46 3.68
  Q 2.45 5.45 2.37 18.00
  Q 2.12 57.46 2.27 282.95
  Q 2.33 371.20 2.33 461.23
  Q 2.33 486.18 2.20 992.50
  Q 2.20 1003.45 2.56 1018.63
  Q 2.61 1020.90 3.16 1021.55
  Q 4.11 1022.68 5.91 1022.61
  Q 10.39 1022.44 22.00 1022.41
  Q 133.68 1022.14 652.68 1022.22
  Q 681.72 1022.22 682.36 1022.23
  C 708.34 1022.52 729.77 1022.12 756.51 1022.25
  Q 790.94 1022.41 827.75 1022.31
  Q 925.81 1022.04 1021.08 1022.37
  A 1.19 1.19 0.0 0 0 1022.27 1021.18
  L 1022.27 2.36
  A 0.74 0.74 0.0 0 0 1022.14 1.94
  Q 1021.34 0.84 1019.43 0.82
  Q 1014.83 0.79 1004.13 0.00
  L 1024.00 0.00
  L 1024.00 1024.00
  L 0.00 1024.00
  L 0.00 0.00
  L 29.39 0.00
  Z"
/>
<path fill="#0d0d14" d="
  M 1004.13 0.00
  Q 1014.83 0.79 1019.43 0.82
  Q 1021.34 0.84 1022.14 1.94
  A 0.74 0.74 0.0 0 1 1022.27 2.36
  L 1022.27 1021.18
  A 1.19 1.19 0.0 0 1 1021.08 1022.37
  Q 925.81 1022.04 827.75 1022.31
  Q 790.94 1022.41 756.51 1022.25
  C 729.77 1022.12 708.34 1022.52 682.36 1022.23
  Q 681.72 1022.22 652.68 1022.22
  Q 133.68 1022.14 22.00 1022.41
  Q 10.39 1022.44 5.91 1022.61
  Q 4.11 1022.68 3.16 1021.55
  Q 2.61 1020.90 2.56 1018.63
  Q 2.20 1003.45 2.20 992.50
  Q 2.33 486.18 2.33 461.23
  Q 2.33 371.20 2.27 282.95
  Q 2.12 57.46 2.37 18.00
  Q 2.45 5.45 2.46 3.68
  C 2.47 1.00 4.35 1.30 6.69 1.17
  Q 18.04 0.55 29.39 0.00
  L 1004.13 0.00
  Z
  M 448.02 222.64
  Q 420.92 225.68 395.65 235.40
  Q 392.45 236.53 389.32 237.85
  Q 362.30 249.24 338.89 266.97
  Q 319.73 281.87 303.95 300.44
  Q 302.11 302.60 300.39 304.95
  C 281.77 327.79 268.26 355.17 260.39 383.41
  Q 247.58 429.69 257.70 477.27
  L 256.92 489.58
  Q 256.43 505.10 258.92 520.50
  C 261.34 538.27 267.46 556.01 275.16 572.13
  Q 279.72 581.73 285.39 590.61
  Q 308.74 627.15 345.21 650.53
  Q 377.84 671.45 415.89 678.09
  Q 448.58 684.22 481.23 679.15
  Q 497.03 676.77 511.65 672.60
  C 566.77 681.13 624.52 670.10 671.14 639.32
  Q 701.40 619.75 724.09 592.09
  Q 754.03 555.82 767.00 511.14
  Q 780.59 463.38 773.32 414.64
  Q 764.46 355.16 727.30 308.18
  Q 681.24 249.94 609.49 230.01
  C 582.92 223.37 554.86 220.07 528.01 223.72
  Q 526.73 223.89 522.25 225.15
  A 1.73 1.60 -65.8 0 0 521.83 225.33
  Q 520.12 226.30 517.94 226.13
  Q 515.70 225.85 508.38 224.38
  Q 503.66 223.43 492.98 222.40
  Q 470.36 220.21 448.02 222.64
  Z
  M 782.64 738.68
  A 7.11 7.11 0.0 0 0 775.53 731.57
  A 7.11 7.11 0.0 0 0 768.42 738.68
  A 7.11 7.11 0.0 0 0 775.53 745.79
  A 7.11 7.11 0.0 0 0 782.64 738.68
  Z
  M 512.34 769.76
  A 0.60 0.60 0.0 0 1 512.62 768.83
  Q 524.36 764.67 525.81 753.24
  Q 527.04 743.57 519.72 738.34
  C 517.31 736.61 511.97 734.88 509.12 734.59
  Q 496.81 733.36 483.50 735.43
  A 0.64 0.63 85.8 0 0 482.96 736.06
  L 482.96 797.04
  A 0.52 0.51 -0.0 0 0 483.48 797.55
  L 494.39 797.55
  A 0.72 0.72 0.0 0 0 495.11 796.83
  L 495.11 773.06
  A 0.72 0.72 0.0 0 1 495.70 772.35
  Q 501.67 771.24 504.58 776.19
  Q 504.72 776.42 509.15 784.61
  Q 512.13 790.11 517.07 796.52
  A 2.78 2.76 -18.6 0 0 519.27 797.60
  L 531.44 797.60
  A 0.70 0.69 -17.8 0 0 532.01 796.50
  Q 515.30 773.12 514.77 772.19
  C 514.17 771.14 513.00 770.63 512.34 769.76
  Z
  M 273.84 770.31
  Q 279.86 770.31 286.66 770.36
  A 0.42 0.42 0.0 0 1 287.07 770.78
  L 287.07 796.94
  A 0.60 0.60 0.0 0 0 287.67 797.54
  L 298.72 797.54
  A 0.51 0.51 0.0 0 0 299.23 797.03
  L 299.23 734.91
  A 0.52 0.51 0.0 0 0 298.71 734.40
  L 287.66 734.40
  A 0.59 0.59 0.0 0 0 287.07 734.99
  L 287.07 758.87
  A 0.40 0.39 88.8 0 1 286.70 759.27
  Q 285.24 759.32 273.84 759.32
  Q 262.44 759.32 260.99 759.27
  A 0.40 0.39 -88.8 0 1 260.61 758.87
  L 260.62 734.99
  A 0.59 0.59 0.0 0 0 260.03 734.40
  L 248.98 734.40
  A 0.52 0.51 0.0 0 0 248.46 734.91
  L 248.45 797.03
  A 0.51 0.51 0.0 0 0 248.96 797.54
  L 260.01 797.54
  A 0.60 0.60 0.0 0 0 260.61 796.94
  L 260.61 770.78
  A 0.42 0.42 0.0 0 1 261.03 770.36
  Q 267.83 770.31 273.84 770.31
  Z
  M 728.96 734.46
  A 0.31 0.31 0.0 0 0 728.66 734.68
  L 708.80 797.12
  A 0.31 0.31 0.0 0 0 709.09 797.52
  L 721.30 797.52
  A 0.31 0.31 0.0 0 0 721.60 797.29
  L 726.20 780.81
  A 0.31 0.31 0.0 0 1 726.50 780.58
  L 745.44 780.58
  A 0.31 0.31 0.0 0 1 745.74 780.81
  L 750.24 797.30
  A 0.31 0.31 0.0 0 0 750.54 797.53
  L 763.43 797.53
  A 0.31 0.31 0.0 0 0 763.72 797.13
  L 743.98 734.68
  A 0.31 0.31 0.0 0 0 743.68 734.46
  L 728.96 734.46
  Z
  M 578.24 762.15
  L 582.55 762.15
  A 0.76 0.76 0.0 0 1 583.31 762.90
  Q 583.43 769.03 583.38 781.00
  C 583.36 786.88 583.58 791.82 588.08 795.72
  C 592.12 799.21 599.51 798.73 604.37 797.53
  A 1.52 1.52 0.0 0 0 605.53 796.05
  L 605.53 788.97
  A 0.96 0.96 0.0 0 0 604.32 788.04
  C 596.11 790.27 594.80 784.02 595.08 777.33
  Q 595.12 776.41 595.11 762.63
  A 0.46 0.46 0.0 0 1 595.57 762.17
  L 605.02 762.17
  A 1.00 1.00 0.0 0 0 606.02 761.17
  L 606.02 754.07
  A 1.12 1.12 0.0 0 0 604.90 752.95
  L 596.13 752.95
  A 0.86 0.86 0.0 0 1 595.27 752.09
  L 595.27 740.80
  A 0.58 0.58 0.0 0 0 594.53 740.24
  L 584.12 743.07
  A 0.74 0.74 0.0 0 0 583.58 743.78
  L 583.58 752.53
  A 0.57 0.56 90.0 0 1 583.02 753.10
  L 578.06 753.10
  A 0.94 0.94 0.0 0 0 577.12 754.04
  L 577.12 761.02
  A 1.13 1.12 -90.0 0 0 578.24 762.15
  Z
  M 331.50 798.26
  C 344.85 797.40 353.22 789.10 353.68 775.79
  C 354.20 760.99 344.02 751.29 329.47 752.22
  C 316.13 753.09 307.76 761.38 307.30 774.69
  C 306.78 789.50 316.96 799.20 331.50 798.26
  Z
  M 361.16 753.49
  L 361.16 796.75
  A 0.80 0.80 0.0 0 0 361.96 797.55
  L 372.22 797.55
  A 0.93 0.92 0.0 0 0 373.15 796.63
  Q 373.20 778.95 373.10 773.55
  Q 372.99 767.61 374.59 765.25
  Q 377.02 761.63 382.29 762.06
  C 387.69 762.50 388.79 767.47 388.87 771.98
  Q 389.03 781.11 388.86 796.82
  A 0.70 0.70 0.0 0 0 389.56 797.53
  L 400.00 797.53
  A 0.90 0.90 0.0 0 0 400.90 796.62
  Q 400.71 777.49 400.97 770.35
  Q 401.23 763.05 407.76 761.93
  C 415.56 760.58 416.59 768.02 416.59 773.77
  Q 416.57 795.74 416.58 797.04
  A 0.52 0.51 89.4 0 0 417.09 797.55
  L 427.81 797.55
  A 0.81 0.80 -89.6 0 0 428.61 796.75
  Q 428.68 783.14 428.63 769.24
  C 428.60 762.25 425.52 754.71 418.20 752.88
  Q 408.47 750.44 401.16 757.16
  Q 399.01 759.14 398.90 759.23
  A 0.58 0.57 -38.7 0 1 398.05 759.14
  C 395.88 756.03 393.98 753.69 390.01 752.80
  Q 379.24 750.39 372.66 758.76
  A 0.51 0.50 64.3 0 1 371.76 758.44
  L 371.76 754.22
  A 1.20 1.19 -0.0 0 0 370.56 753.03
  L 361.62 753.03
  A 0.46 0.46 0.0 0 0 361.16 753.49
  Z
  M 471.22 787.53
  C 463.27 790.14 448.78 791.17 446.86 779.49
  A 0.68 0.68 0.0 0 1 447.53 778.70
  L 475.42 778.70
  A 0.59 0.57 4.6 0 0 476.00 778.22
  C 477.51 769.30 474.84 756.67 465.41 753.62
  Q 454.56 750.13 446.50 754.93
  Q 437.90 760.05 435.92 770.54
  C 434.46 778.26 435.78 788.12 442.26 793.39
  C 450.60 800.16 463.34 799.25 473.22 795.96
  A 1.40 1.39 -16.9 0 0 474.13 794.27
  L 472.48 788.20
  A 0.98 0.98 0.0 0 0 471.22 787.53
  Z
  M 561.52 792.75
  L 561.52 796.69
  A 0.86 0.85 -0.0 0 0 562.38 797.54
  L 572.42 797.54
  A 0.57 0.57 0.0 0 0 572.98 796.87
  C 572.04 791.54 572.46 783.21 572.37 769.96
  Q 572.33 763.21 567.84 757.16
  A 3.40 3.35 -0.4 0 0 567.11 756.45
  Q 563.43 753.82 561.30 753.31
  Q 548.95 750.35 536.42 756.26
  A 0.33 0.32 -20.5 0 0 536.24 756.64
  L 538.54 765.06
  A 0.13 0.13 0.0 0 0 538.73 765.14
  Q 543.24 762.50 547.72 761.48
  C 550.52 760.84 556.93 760.76 558.68 763.90
  Q 559.71 765.74 559.69 768.11
  A 0.99 0.98 -1.9 0 1 558.78 769.08
  C 551.47 769.65 546.06 769.95 540.62 773.32
  C 535.34 776.61 533.11 782.32 534.12 788.18
  C 536.44 801.69 553.56 800.68 560.80 792.48
  A 0.41 0.41 0.0 0 1 561.52 792.75
  Z
  M 645.83 787.45
  C 637.92 790.09 623.50 791.17 621.53 779.55
  A 0.68 0.68 0.0 0 1 622.20 778.76
  L 649.98 778.64
  A 0.59 0.57 4.4 0 0 650.55 778.16
  C 652.02 769.27 649.31 756.70 639.90 753.70
  Q 629.08 750.27 621.07 755.09
  Q 612.52 760.22 610.60 770.68
  C 609.18 778.38 610.53 788.19 617.01 793.41
  C 625.35 800.12 638.03 799.16 647.86 795.84
  A 1.39 1.38 -17.2 0 0 648.76 794.15
  L 647.09 788.11
  A 0.98 0.97 -17.0 0 0 645.83 787.45
  Z
  M 656.75 787.12
  L 654.68 794.54
  A 0.99 0.99 0.0 0 0 655.24 795.70
  C 663.38 799.17 677.42 800.37 683.85 792.85
  Q 688.26 787.69 686.41 780.42
  C 684.75 773.90 676.91 771.26 671.24 769.29
  C 668.36 768.29 665.44 764.36 668.99 762.03
  C 672.84 759.50 679.44 761.27 682.93 763.42
  A 0.15 0.14 -66.7 0 0 683.15 763.33
  L 685.44 755.09
  A 0.36 0.35 -70.8 0 0 685.24 754.66
  C 676.39 750.96 661.55 750.53 657.06 760.66
  C 653.82 767.99 657.61 775.59 665.12 778.43
  Q 672.48 781.21 673.74 782.21
  C 677.12 784.88 674.78 788.77 671.17 789.35
  Q 664.90 790.35 657.72 786.69
  A 0.69 0.68 -68.6 0 0 656.75 787.12
  Z
  M 781.3278 753.5806
  A 0.61 0.61 0.0 0 0 780.7189 752.9695
  L 769.8589 752.9506
  A 0.61 0.61 0.0 0 0 769.2478 753.5595
  L 769.1722 796.9194
  A 0.61 0.61 0.0 0 0 769.7811 797.5305
  L 780.6411 797.5494
  A 0.61 0.61 0.0 0 0 781.2522 796.9405
  L 781.3278 753.5806
  Z
  M 699.6898 782.9297
  A 7.80 7.56 -81.3 0 0 691.0370 789.4965
  A 7.80 7.56 -81.3 0 0 697.3302 798.3503
  A 7.80 7.56 -81.3 0 0 705.9830 791.7835
  A 7.80 7.56 -81.3 0 0 699.6898 782.9297
  Z"
/>
<path fill="#dd6eab" d="
  M 492.98 222.40
  L 491.31 222.46
  A 0.50 0.49 -2.8 0 0 490.83 222.98
  C 492.38 250.21 491.94 275.88 495.06 304.57
  Q 470.66 302.92 446.42 306.33
  Q 446.45 264.61 448.02 222.64
  Q 470.36 220.21 492.98 222.40
  Z"
/>
<path fill="#352859" d="
  M 609.49 230.01
  Q 607.60 230.70 610.81 233.45
  Q 617.26 238.98 623.43 244.82
  Q 632.78 253.67 645.79 271.33
  Q 630.87 273.37 617.05 279.42
  C 589.28 252.70 555.22 235.25 517.94 226.13
  Q 520.12 226.30 521.83 225.33
  A 1.73 1.60 -65.8 0 1 522.25 225.15
  Q 526.73 223.89 528.01 223.72
  C 554.86 220.07 582.92 223.37 609.49 230.01
  Z"
/>
<path fill="#f67eb4" d="
  M 492.98 222.40
  Q 503.66 223.43 508.38 224.38
  Q 515.70 225.85 517.94 226.13
  C 555.22 235.25 589.28 252.70 617.05 279.42
  C 656.00 317.22 677.30 366.27 677.65 420.93
  L 677.07 421.61
  A 0.31 0.31 0.0 0 1 676.56 421.55
  L 666.11 400.47
  Q 653.05 379.55 634.90 363.27
  L 625.07 354.79
  Q 602.45 336.48 576.02 324.75
  Q 567.67 320.86 555.41 316.65
  Q 530.85 308.22 506.20 305.89
  L 495.06 304.57
  C 491.94 275.88 492.38 250.21 490.83 222.98
  A 0.50 0.49 -2.8 0 1 491.31 222.46
  L 492.98 222.40
  Z"
/>
<path fill="#c85fa4" d="
  M 448.02 222.64
  Q 446.45 264.61 446.42 306.33
  Q 424.24 309.89 402.80 316.97
  Q 400.60 291.10 398.61 255.35
  Q 398.10 246.18 395.65 235.40
  Q 420.92 225.68 448.02 222.64
  Z"
/>
<path fill="#b992d1" d="
  M 767.00 511.14
  Q 760.96 494.24 750.32 482.95
  Q 741.25 473.32 731.91 464.24
  C 719.42 452.10 708.59 438.21 701.68 422.11
  Q 696.63 410.33 693.99 397.51
  C 689.28 351.66 673.30 308.45 645.79 271.33
  Q 632.78 253.67 623.43 244.82
  Q 617.26 238.98 610.81 233.45
  Q 607.60 230.70 609.49 230.01
  Q 681.24 249.94 727.30 308.18
  Q 764.46 355.16 773.32 414.64
  Q 780.59 463.38 767.00 511.14
  Z"
/>
<path fill="#b44e9e" d="
  M 395.65 235.40
  Q 398.10 246.18 398.61 255.35
  Q 400.60 291.10 402.80 316.97
  L 382.05 324.61
  C 368.59 303.64 355.33 286.66 338.89 266.97
  Q 362.30 249.24 389.32 237.85
  Q 392.45 236.53 395.65 235.40
  Z"
/>
<path fill="#9b459d" d="
  M 338.89 266.97
  C 355.33 286.66 368.59 303.64 382.05 324.61
  L 377.41 326.95
  Q 353.43 338.28 332.13 354.31
  Q 326.54 342.15 319.98 332.96
  Q 306.59 314.19 300.39 304.95
  Q 302.11 302.60 303.95 300.44
  Q 319.73 281.87 338.89 266.97
  Z"
/>
<path fill="#2f1b46" d="
  M 645.79 271.33
  C 673.30 308.45 689.28 351.66 693.99 397.51
  Q 696.41 428.47 691.85 458.96
  Q 687.20 462.27 682.09 464.54
  Q 677.09 466.77 675.45 471.64
  Q 674.07 475.76 673.51 481.30
  L 673.96 457.02
  Q 677.39 439.25 677.65 420.93
  C 677.30 366.27 656.00 317.22 617.05 279.42
  Q 630.87 273.37 645.79 271.33
  Z"
/>
<path fill="#2f1b46" d="
  M 495.06 304.57
  L 506.20 305.89
  Q 524.20 311.96 538.49 319.52
  Q 545.49 323.22 552.36 328.92
  Q 549.95 329.36 547.68 329.10
  Q 521.61 326.17 496.24 333.50
  C 470.06 327.11 439.28 327.39 414.25 338.28
  C 400.92 344.08 387.45 355.35 384.03 369.52
  C 380.53 383.98 389.37 394.58 399.30 403.73
  Q 390.60 415.81 386.36 424.13
  Q 383.03 430.65 379.64 436.99
  Q 367.51 420.34 362.93 400.78
  Q 360.98 392.43 360.32 379.95
  Q 359.58 366.04 358.06 354.68
  A 1.53 1.52 59.1 0 1 358.33 353.59
  Q 365.94 343.12 377.18 332.01
  C 378.69 330.53 379.70 328.44 377.41 326.95
  L 382.05 324.61
  L 402.80 316.97
  Q 424.24 309.89 446.42 306.33
  Q 470.66 302.92 495.06 304.57
  Z"
/>
<path fill="#7e44a4" d="
  M 300.39 304.95
  Q 306.59 314.19 319.98 332.96
  Q 326.54 342.15 332.13 354.31
  Q 329.26 356.63 326.27 359.03
  Q 299.09 380.77 280.88 410.37
  Q 269.83 397.40 260.39 383.41
  C 268.26 355.17 281.77 327.79 300.39 304.95
  Z"
/>
<path fill="#6945ac" d="
  M 576.02 324.75
  L 556.41 332.09
  L 552.36 328.92
  Q 545.49 323.22 538.49 319.52
  Q 524.20 311.96 506.20 305.89
  Q 530.85 308.22 555.41 316.65
  Q 567.67 320.86 576.02 324.75
  Z"
/>
<path fill="#7e44a4" d="
  M 625.07 354.79
  L 579.89 359.27
  Q 570.40 343.89 556.41 332.09
  L 576.02 324.75
  Q 602.45 336.48 625.07 354.79
  Z"
/>
<path fill="#1c1c39" d="
  M 377.41 326.95
  C 379.70 328.44 378.69 330.53 377.18 332.01
  Q 365.94 343.12 358.33 353.59
  A 1.53 1.52 59.1 0 0 358.06 354.68
  Q 359.58 366.04 360.32 379.95
  Q 360.98 392.43 362.93 400.78
  Q 367.51 420.34 379.64 436.99
  Q 378.68 439.60 375.46 446.69
  Q 372.67 452.86 370.39 462.47
  L 367.94 466.58
  L 349.04 449.18
  L 334.25 433.39
  A 8.80 6.97 59.4 0 1 333.46 432.44
  L 329.10 426.52
  A 0.75 0.75 0.0 0 0 327.75 426.87
  Q 324.24 454.18 327.89 479.93
  C 312.88 483.69 300.64 484.61 282.70 485.98
  Q 270.77 486.90 256.92 489.58
  L 257.70 477.27
  Q 258.98 474.23 259.27 468.49
  Q 259.55 462.93 262.83 451.81
  Q 267.80 434.92 275.72 419.17
  Q 277.25 416.12 280.88 410.37
  Q 299.09 380.77 326.27 359.03
  Q 329.26 356.63 332.13 354.31
  Q 353.43 338.28 377.41 326.95
  Z"
/>
<path fill="#352859" d="
  M 496.24 333.50
  Q 473.47 340.36 455.63 351.13
  Q 422.76 370.97 399.30 403.73
  C 389.37 394.58 380.53 383.98 384.03 369.52
  C 387.45 355.35 400.92 344.08 414.25 338.28
  C 439.28 327.39 470.06 327.11 496.24 333.50
  Z"
/>
<path fill="#0d0d14" d="
  M 552.36 328.92
  L 556.41 332.09
  Q 570.40 343.89 579.89 359.27
  L 586.38 371.94
  Q 595.62 393.69 595.34 417.02
  Q 594.48 445.71 579.41 469.65
  Q 567.69 487.24 549.98 498.99
  Q 525.46 514.57 495.97 517.01
  C 467.64 518.85 441.13 512.14 415.94 499.44
  Q 392.02 487.62 371.65 470.09
  Q 370.43 469.04 369.44 467.82
  L 370.39 462.47
  Q 372.67 452.86 375.46 446.69
  Q 378.68 439.60 379.64 436.99
  Q 383.03 430.65 386.36 424.13
  Q 390.60 415.81 399.30 403.73
  Q 422.76 370.97 455.63 351.13
  Q 473.47 340.36 496.24 333.50
  Q 521.61 326.17 547.68 329.10
  Q 549.95 329.36 552.36 328.92
  Z"
/>
<path fill="#9b459d" d="
  M 634.90 363.27
  Q 610.36 366.29 586.38 371.94
  L 579.89 359.27
  L 625.07 354.79
  L 634.90 363.27
  Z"
/>
<path fill="#b54182" d="
  M 666.11 400.47
  Q 640.76 404.27 615.97 409.70
  C 610.31 410.94 602.73 412.25 596.08 413.29
  A 0.63 0.62 87.1 0 0 595.56 413.87
  L 595.34 417.02
  Q 595.62 393.69 586.38 371.94
  Q 610.36 366.29 634.90 363.27
  Q 653.05 379.55 666.11 400.47
  Z"
/>
<path fill="#6945ac" d="
  M 260.39 383.41
  Q 269.83 397.40 280.88 410.37
  Q 277.25 416.12 275.72 419.17
  Q 267.80 434.92 262.83 451.81
  Q 259.55 462.93 259.27 468.49
  Q 258.98 474.23 257.70 477.27
  Q 247.58 429.69 260.39 383.41
  Z"
/>
<path fill="#a386ca" d="
  M 767.00 511.14
  Q 754.03 555.82 724.09 592.09
  Q 716.89 579.88 709.98 572.42
  Q 697.37 558.81 684.75 545.21
  Q 676.61 536.45 672.90 525.23
  C 681.99 504.19 688.66 481.71 691.85 458.96
  Q 696.41 428.47 693.99 397.51
  Q 696.63 410.33 701.68 422.11
  C 708.59 438.21 719.42 452.10 731.91 464.24
  Q 741.25 473.32 750.32 482.95
  Q 760.96 494.24 767.00 511.14
  Z"
/>
<path fill="#cd4993" d="
  M 666.11 400.47
  L 676.56 421.55
  A 0.31 0.31 0.0 0 0 677.07 421.61
  L 677.65 420.93
  Q 677.39 439.25 673.96 457.02
  Q 670.01 472.07 666.59 481.06
  Q 654.70 512.38 631.10 538.65
  Q 622.49 526.02 614.72 517.43
  Q 600.88 502.15 597.25 497.84
  Q 586.45 485.03 579.41 469.65
  Q 594.48 445.71 595.34 417.02
  L 595.56 413.87
  A 0.63 0.62 87.1 0 1 596.08 413.29
  C 602.73 412.25 610.31 410.94 615.97 409.70
  Q 640.76 404.27 666.11 400.47
  Z"
/>
<path fill="#412d69" d="
  M 349.04 449.18
  Q 349.79 461.36 351.22 473.38
  C 355.34 508.05 368.35 541.48 386.37 571.32
  Q 376.60 565.44 371.14 560.60
  Q 366.16 556.20 361.19 551.77
  Q 357.89 548.83 355.37 546.13
  Q 352.67 543.23 349.94 540.10
  Q 344.53 533.12 342.74 528.52
  Q 340.05 521.64 336.80 515.01
  Q 330.86 497.89 327.89 479.93
  Q 324.24 454.18 327.75 426.87
  A 0.75 0.75 0.0 0 1 329.10 426.52
  L 333.46 432.44
  A 8.80 6.97 59.4 0 0 334.25 433.39
  L 349.04 449.18
  Z"
/>
<path fill="#6945ac" d="
  M 349.04 449.18
  L 367.94 466.58
  L 369.44 467.82
  Q 370.43 469.04 371.65 470.09
  Q 392.02 487.62 415.94 499.44
  C 431.61 517.15 447.17 536.96 461.27 553.69
  C 476.55 571.83 485.78 583.21 499.23 601.57
  Q 441.88 604.23 392.22 575.03
  Q 387.96 572.53 386.37 571.32
  C 368.35 541.48 355.34 508.05 351.22 473.38
  Q 349.79 461.36 349.04 449.18
  Z"
/>
<path fill="#0d0d14" d="
  M 673.96 457.02
  L 673.51 481.30
  C 672.55 491.81 671.76 503.11 669.79 512.80
  Q 666.42 529.33 660.02 544.95
  L 651.91 556.21
  L 648.28 558.60
  A 4.95 4.80 -83.7 0 0 647.47 559.27
  Q 635.90 571.19 623.80 580.78
  Q 606.24 594.68 584.74 604.42
  C 570.57 610.84 556.38 615.90 540.67 619.12
  Q 507.10 626.37 472.97 622.09
  Q 438.61 617.34 408.62 600.39
  Q 390.39 589.97 375.76 575.31
  Q 361.00 560.97 350.50 543.28
  Q 349.06 540.86 349.94 540.10
  Q 352.67 543.23 355.37 546.13
  Q 357.89 548.83 361.19 551.77
  Q 366.16 556.20 371.14 560.60
  Q 376.60 565.44 386.37 571.32
  Q 387.96 572.53 392.22 575.03
  Q 441.88 604.23 499.23 601.57
  Q 527.58 599.80 554.32 590.29
  Q 584.75 579.06 609.71 558.79
  Q 621.21 549.32 631.10 538.65
  Q 654.70 512.38 666.59 481.06
  Q 670.01 472.07 673.96 457.02
  Z"
/>
<path fill="#352859" d="
  M 691.85 458.96
  C 688.66 481.71 681.99 504.19 672.90 525.23
  Q 666.68 539.57 658.81 553.03
  Q 658.33 548.86 660.02 544.95
  Q 666.42 529.33 669.79 512.80
  C 671.76 503.11 672.55 491.81 673.51 481.30
  Q 674.07 475.76 675.45 471.64
  Q 677.09 466.77 682.09 464.54
  Q 687.20 462.27 691.85 458.96
  Z"
/>
<path fill="#221e2a" d="
  M 370.39 462.47
  L 369.44 467.82
  L 367.94 466.58
  L 370.39 462.47
  Z"
/>
<path fill="#b44e9e" d="
  M 579.41 469.65
  Q 586.45 485.03 597.25 497.84
  Q 600.88 502.15 614.72 517.43
  Q 622.49 526.02 631.10 538.65
  Q 621.21 549.32 609.71 558.79
  Q 580.85 527.87 549.98 498.99
  Q 567.69 487.24 579.41 469.65
  Z"
/>
<path fill="#2f1b46" d="
  M 327.89 479.93
  Q 330.86 497.89 336.80 515.01
  C 319.32 517.39 304.66 517.58 288.42 517.90
  Q 273.62 518.19 258.92 520.50
  Q 256.43 505.10 256.92 489.58
  Q 270.77 486.90 282.70 485.98
  C 300.64 484.61 312.88 483.69 327.89 479.93
  Z"
/>
<path fill="#9b459d" d="
  M 549.98 498.99
  Q 580.85 527.87 609.71 558.79
  Q 584.75 579.06 554.32 590.29
  C 543.52 576.57 533.39 566.09 522.28 554.46
  Q 506.29 537.72 495.97 517.01
  Q 525.46 514.57 549.98 498.99
  Z"
/>
<path fill="#7e44a4" d="
  M 495.97 517.01
  Q 506.29 537.72 522.28 554.46
  C 533.39 566.09 543.52 576.57 554.32 590.29
  Q 527.58 599.80 499.23 601.57
  C 485.78 583.21 476.55 571.83 461.27 553.69
  C 447.17 536.96 431.61 517.15 415.94 499.44
  C 441.13 512.14 467.64 518.85 495.97 517.01
  Z"
/>
<path fill="#352859" d="
  M 349.94 540.10
  Q 349.06 540.86 350.50 543.28
  Q 361.00 560.97 375.76 575.31
  Q 353.90 572.33 331.86 571.98
  Q 303.58 571.52 275.16 572.13
  C 267.46 556.01 261.34 538.27 258.92 520.50
  Q 273.62 518.19 288.42 517.90
  C 304.66 517.58 319.32 517.39 336.80 515.01
  Q 340.05 521.64 342.74 528.52
  Q 344.53 533.12 349.94 540.10
  Z"
/>
<path fill="#896fc1" d="
  M 672.90 525.23
  Q 676.61 536.45 684.75 545.21
  Q 697.37 558.81 709.98 572.42
  Q 716.89 579.88 724.09 592.09
  Q 701.40 619.75 671.14 639.32
  C 659.18 621.99 645.94 607.64 630.43 593.07
  L 645.80 572.84
  Q 653.07 563.34 658.81 553.03
  Q 666.68 539.57 672.90 525.23
  Z"
/>
<path fill="#2f1b46" d="
  M 660.02 544.95
  Q 658.33 548.86 658.81 553.03
  Q 653.07 563.34 645.80 572.84
  L 651.91 556.21
  L 660.02 544.95
  Z"
/>
<path fill="#1c1c39" d="
  M 651.91 556.21
  L 645.80 572.84
  L 630.43 593.07
  Q 594.65 634.56 545.22 659.21
  Q 546.19 638.53 540.67 619.12
  C 556.38 615.90 570.57 610.84 584.74 604.42
  Q 606.24 594.68 623.80 580.78
  Q 635.90 571.19 647.47 559.27
  A 4.95 4.80 -83.7 0 1 648.28 558.60
  L 651.91 556.21
  Z"
/>
<path fill="#412d69" d="
  M 375.76 575.31
  Q 390.39 589.97 408.62 600.39
  Q 416.18 638.71 415.89 678.09
  Q 377.84 671.45 345.21 650.53
  Q 308.74 627.15 285.39 590.61
  Q 279.72 581.73 275.16 572.13
  Q 303.58 571.52 331.86 571.98
  Q 353.90 572.33 375.76 575.31
  Z"
/>
<path fill="#7d60bc" d="
  M 630.43 593.07
  C 645.94 607.64 659.18 621.99 671.14 639.32
  C 624.52 670.10 566.77 681.13 511.65 672.60
  Q 529.62 666.98 545.22 659.21
  Q 594.65 634.56 630.43 593.07
  Z"
/>
<path fill="#352859" d="
  M 408.62 600.39
  Q 438.61 617.34 472.97 622.09
  Q 479.73 650.27 481.23 679.15
  Q 448.58 684.22 415.89 678.09
  Q 416.18 638.71 408.62 600.39
  Z"
/>
<path fill="#2f1b46" d="
  M 540.67 619.12
  Q 546.19 638.53 545.22 659.21
  Q 529.62 666.98 511.65 672.60
  Q 497.03 676.77 481.23 679.15
  Q 479.73 650.27 472.97 622.09
  Q 507.10 626.37 540.67 619.12
  Z"
/>
<circle fill="#fffefe" cx="775.53" cy="738.68" r="7.11"/>
<path fill="#fffefe" d="
  M 512.34 769.76
  C 513.00 770.63 514.17 771.14 514.77 772.19
  Q 515.30 773.12 532.01 796.50
  A 0.70 0.69 -17.8 0 1 531.44 797.60
  L 519.27 797.60
  A 2.78 2.76 -18.6 0 1 517.07 796.52
  Q 512.13 790.11 509.15 784.61
  Q 504.72 776.42 504.58 776.19
  Q 501.67 771.24 495.70 772.35
  A 0.72 0.72 0.0 0 0 495.11 773.06
  L 495.11 796.83
  A 0.72 0.72 0.0 0 1 494.39 797.55
  L 483.48 797.55
  A 0.52 0.51 0.0 0 1 482.96 797.04
  L 482.96 736.06
  A 0.64 0.63 85.8 0 1 483.50 735.43
  Q 496.81 733.36 509.12 734.59
  C 511.97 734.88 517.31 736.61 519.72 738.34
  Q 527.04 743.57 525.81 753.24
  Q 524.36 764.67 512.62 768.83
  A 0.60 0.60 0.0 0 0 512.34 769.76
  Z
  M 494.99 744.58
  L 494.99 761.18
  A 1.07 1.07 0.0 0 0 496.06 762.25
  L 503.05 762.25
  A 9.78 8.66 -0.0 0 0 512.83 753.59
  L 512.83 752.17
  A 9.78 8.66 0.0 0 0 503.05 743.51
  L 496.06 743.51
  A 1.07 1.07 0.0 0 0 494.99 744.58
  Z"
/>
<path fill="#fffefe" d="
  M 273.84 759.32
  Q 285.24 759.32 286.70 759.27
  A 0.40 0.39 88.8 0 0 287.07 758.87
  L 287.07 734.99
  A 0.59 0.59 0.0 0 1 287.66 734.40
  L 298.71 734.40
  A 0.52 0.51 -0.0 0 1 299.23 734.91
  L 299.23 797.03
  A 0.51 0.51 0.0 0 1 298.72 797.54
  L 287.67 797.54
  A 0.60 0.60 0.0 0 1 287.07 796.94
  L 287.07 770.78
  A 0.42 0.42 0.0 0 0 286.66 770.36
  Q 279.86 770.31 273.84 770.31
  Q 267.83 770.31 261.03 770.36
  A 0.42 0.42 0.0 0 0 260.61 770.78
  L 260.61 796.94
  A 0.60 0.60 0.0 0 1 260.01 797.54
  L 248.96 797.54
  A 0.51 0.51 0.0 0 1 248.45 797.03
  L 248.46 734.91
  A 0.52 0.51 0.0 0 1 248.98 734.40
  L 260.03 734.40
  A 0.59 0.59 0.0 0 1 260.62 734.99
  L 260.61 758.87
  A 0.40 0.39 -88.8 0 0 260.99 759.27
  Q 262.44 759.32 273.84 759.32
  Z"
/>
<path fill="#fffefe" d="
  M 728.96 734.46
  L 743.68 734.46
  A 0.31 0.31 0.0 0 1 743.98 734.68
  L 763.72 797.13
  A 0.31 0.31 0.0 0 1 763.43 797.53
  L 750.54 797.53
  A 0.31 0.31 0.0 0 1 750.24 797.30
  L 745.74 780.81
  A 0.31 0.31 0.0 0 0 745.44 780.58
  L 726.50 780.58
  A 0.31 0.31 0.0 0 0 726.20 780.81
  L 721.60 797.29
  A 0.31 0.31 0.0 0 1 721.30 797.52
  L 709.09 797.52
  A 0.31 0.31 0.0 0 1 708.80 797.12
  L 728.66 734.68
  A 0.31 0.31 0.0 0 1 728.96 734.46
  Z
  M 735.92 771.67
  Q 741.92 771.66 742.75 771.60
  A 0.59 0.58 -9.6 0 0 743.28 770.86
  L 736.18 744.77
  A 0.36 0.23 89.7 0 0 736.13 744.70
  Q 736.01 744.58 735.83 744.58
  Q 735.66 744.58 735.54 744.70
  A 0.36 0.23 89.9 0 0 735.49 744.77
  L 728.55 770.90
  A 0.59 0.58 9.3 0 0 729.08 771.64
  Q 729.91 771.69 735.92 771.67
  Z"
/>
<path fill="#fffefe" d="
  M 578.24 762.15
  A 1.13 1.12 90.0 0 1 577.12 761.02
  L 577.12 754.04
  A 0.94 0.94 0.0 0 1 578.06 753.10
  L 583.02 753.10
  A 0.57 0.56 -90.0 0 0 583.58 752.53
  L 583.58 743.78
  A 0.74 0.74 0.0 0 1 584.12 743.07
  L 594.53 740.24
  A 0.58 0.58 0.0 0 1 595.27 740.80
  L 595.27 752.09
  A 0.86 0.86 0.0 0 0 596.13 752.95
  L 604.90 752.95
  A 1.12 1.12 0.0 0 1 606.02 754.07
  L 606.02 761.17
  A 1.00 1.00 0.0 0 1 605.02 762.17
  L 595.57 762.17
  A 0.46 0.46 0.0 0 0 595.11 762.63
  Q 595.12 776.41 595.08 777.33
  C 594.80 784.02 596.11 790.27 604.32 788.04
  A 0.96 0.96 0.0 0 1 605.53 788.97
  L 605.53 796.05
  A 1.52 1.52 0.0 0 1 604.37 797.53
  C 599.51 798.73 592.12 799.21 588.08 795.72
  C 583.58 791.82 583.36 786.88 583.38 781.00
  Q 583.43 769.03 583.31 762.90
  A 0.76 0.76 0.0 0 0 582.55 762.15
  L 578.24 762.15
  Z"
/>
<path fill="#0d0d14" d="
  M 494.99 744.58
  A 1.07 1.07 0.0 0 1 496.06 743.51
  L 503.05 743.51
  A 9.78 8.66 0.0 0 1 512.83 752.17
  L 512.83 753.59
  A 9.78 8.66 0.0 0 1 503.05 762.25
  L 496.06 762.25
  A 1.07 1.07 0.0 0 1 494.99 761.18
  L 494.99 744.58
  Z"
/>
<path fill="#0d0d14" d="
  M 735.83 744.58
  Q 736.01 744.58 736.13 744.70
  A 0.36 0.23 89.7 0 1 736.18 744.77
  L 743.28 770.86
  A 0.59 0.58 -9.6 0 1 742.75 771.60
  Q 741.92 771.66 735.92 771.67
  Q 729.91 771.69 729.08 771.64
  A 0.59 0.58 9.3 0 1 728.55 770.90
  L 735.49 744.77
  A 0.36 0.23 89.9 0 1 735.54 744.70
  Q 735.66 744.58 735.83 744.58
  Z"
/>
<path fill="#fffefe" d="
  M 331.50 798.26
  C 316.96 799.20 306.78 789.50 307.30 774.69
  C 307.76 761.38 316.13 753.09 329.47 752.22
  C 344.02 751.29 354.20 760.99 353.68 775.79
  C 353.22 789.10 344.85 797.40 331.50 798.26
  Z
  M 319.99 775.09
  C 319.92 781.63 322.35 789.30 330.29 789.38
  C 338.23 789.46 340.80 781.83 340.87 775.30
  C 340.93 768.76 338.51 761.09 330.57 761.01
  C 322.62 760.93 320.05 768.56 319.99 775.09
  Z"
/>
<path fill="#fffefe" d="
  M 361.62 753.03
  L 370.56 753.03
  A 1.20 1.19 0.0 0 1 371.76 754.22
  L 371.76 758.44
  A 0.51 0.50 64.3 0 0 372.66 758.76
  Q 379.24 750.39 390.01 752.80
  C 393.98 753.69 395.88 756.03 398.05 759.14
  A 0.58 0.57 -38.7 0 0 398.90 759.23
  Q 399.01 759.14 401.16 757.16
  Q 408.47 750.44 418.20 752.88
  C 425.52 754.71 428.60 762.25 428.63 769.24
  Q 428.68 783.14 428.61 796.75
  A 0.81 0.80 -89.6 0 1 427.81 797.55
  L 417.09 797.55
  A 0.52 0.51 89.4 0 1 416.58 797.04
  Q 416.57 795.74 416.59 773.77
  C 416.59 768.02 415.56 760.58 407.76 761.93
  Q 401.23 763.05 400.97 770.35
  Q 400.71 777.49 400.90 796.62
  A 0.90 0.90 0.0 0 1 400.00 797.53
  L 389.56 797.53
  A 0.70 0.70 0.0 0 1 388.86 796.82
  Q 389.03 781.11 388.87 771.98
  C 388.79 767.47 387.69 762.50 382.29 762.06
  Q 377.02 761.63 374.59 765.25
  Q 372.99 767.61 373.10 773.55
  Q 373.20 778.95 373.15 796.63
  A 0.93 0.92 -0.0 0 1 372.22 797.55
  L 361.96 797.55
  A 0.80 0.80 0.0 0 1 361.16 796.75
  L 361.16 753.49
  A 0.46 0.46 0.0 0 1 361.62 753.03
  Z"
/>
<path fill="#fffefe" d="
  M 471.22 787.53
  A 0.98 0.98 0.0 0 1 472.48 788.20
  L 474.13 794.27
  A 1.40 1.39 -16.9 0 1 473.22 795.96
  C 463.34 799.25 450.60 800.16 442.26 793.39
  C 435.78 788.12 434.46 778.26 435.92 770.54
  Q 437.90 760.05 446.50 754.93
  Q 454.56 750.13 465.41 753.62
  C 474.84 756.67 477.51 769.30 476.00 778.22
  A 0.59 0.57 4.6 0 1 475.42 778.70
  L 447.53 778.70
  A 0.68 0.68 0.0 0 0 446.86 779.49
  C 448.78 791.17 463.27 790.14 471.22 787.53
  Z
  M 448.24 770.55
  L 464.62 770.43
  A 0.75 0.75 0.0 0 0 465.36 769.68
  L 465.36 769.44
  A 9.31 8.85 89.6 0 0 456.44 760.19
  L 456.26 760.19
  A 9.31 8.85 89.6 0 0 447.48 769.56
  L 447.48 769.80
  A 0.75 0.75 0.0 0 0 448.24 770.55
  Z"
/>
<path fill="#fffefe" d="
  M 561.52 792.75
  A 0.41 0.41 0.0 0 0 560.80 792.48
  C 553.56 800.68 536.44 801.69 534.12 788.18
  C 533.11 782.32 535.34 776.61 540.62 773.32
  C 546.06 769.95 551.47 769.65 558.78 769.08
  A 0.99 0.98 -1.9 0 0 559.69 768.11
  Q 559.71 765.74 558.68 763.90
  C 556.93 760.76 550.52 760.84 547.72 761.48
  Q 543.24 762.50 538.73 765.14
  A 0.13 0.13 0.0 0 1 538.54 765.06
  L 536.24 756.64
  A 0.33 0.32 -20.5 0 1 536.42 756.26
  Q 548.95 750.35 561.30 753.31
  Q 563.43 753.82 567.11 756.45
  A 3.40 3.35 -0.4 0 1 567.84 757.16
  Q 572.33 763.21 572.37 769.96
  C 572.46 783.21 572.04 791.54 572.98 796.87
  A 0.57 0.57 0.0 0 1 572.42 797.54
  L 562.38 797.54
  A 0.86 0.85 0.0 0 1 561.52 796.69
  L 561.52 792.75
  Z
  M 560.02 776.37
  C 556.04 776.55 550.33 776.96 547.67 779.64
  Q 544.22 783.13 546.83 787.12
  Q 548.05 788.99 550.04 789.21
  Q 558.48 790.18 560.38 781.93
  Q 561.00 779.25 560.71 776.95
  A 0.67 0.66 84.8 0 0 560.02 776.37
  Z"
/>
<path fill="#fffefe" d="
  M 645.83 787.45
  A 0.98 0.97 -17.0 0 1 647.09 788.11
  L 648.76 794.15
  A 1.39 1.38 -17.2 0 1 647.86 795.84
  C 638.03 799.16 625.35 800.12 617.01 793.41
  C 610.53 788.19 609.18 778.38 610.60 770.68
  Q 612.52 760.22 621.07 755.09
  Q 629.08 750.27 639.90 753.70
  C 649.31 756.70 652.02 769.27 650.55 778.16
  A 0.59 0.57 4.4 0 1 649.98 778.64
  L 622.20 778.76
  A 0.68 0.68 0.0 0 0 621.53 779.55
  C 623.50 791.17 637.92 790.09 645.83 787.45
  Z
  M 622.93 770.53
  L 639.15 770.47
  A 0.72 0.72 0.0 0 0 639.87 769.75
  L 639.86 769.37
  A 9.18 8.79 89.8 0 0 631.04 760.22
  L 630.96 760.22
  A 9.18 8.79 89.8 0 0 622.20 769.43
  L 622.21 769.81
  A 0.72 0.72 0.0 0 0 622.93 770.53
  Z"
/>
<path fill="#fffefe" d="
  M 656.75 787.12
  A 0.69 0.68 -68.6 0 1 657.72 786.69
  Q 664.90 790.35 671.17 789.35
  C 674.78 788.77 677.12 784.88 673.74 782.21
  Q 672.48 781.21 665.12 778.43
  C 657.61 775.59 653.82 767.99 657.06 760.66
  C 661.55 750.53 676.39 750.96 685.24 754.66
  A 0.36 0.35 -70.8 0 1 685.44 755.09
  L 683.15 763.33
  A 0.15 0.14 -66.7 0 1 682.93 763.42
  C 679.44 761.27 672.84 759.50 668.99 762.03
  C 665.44 764.36 668.36 768.29 671.24 769.29
  C 676.91 771.26 684.75 773.90 686.41 780.42
  Q 688.26 787.69 683.85 792.85
  C 677.42 800.37 663.38 799.17 655.24 795.70
  A 0.99 0.99 0.0 0 1 654.68 794.54
  L 656.75 787.12
  Z"
/>
<rect fill="#fffefe" x="-6.04" y="-22.29" transform="translate(775.25,775.25) rotate(0.1)" width="12.08" height="44.58" rx="0.61"/>
<path fill="#0d0d14" d="
  M 448.24 770.55
  A 0.75 0.75 0.0 0 1 447.48 769.80
  L 447.48 769.56
  A 9.31 8.85 89.6 0 1 456.26 760.19
  L 456.44 760.19
  A 9.31 8.85 89.6 0 1 465.36 769.44
  L 465.36 769.68
  A 0.75 0.75 0.0 0 1 464.62 770.43
  L 448.24 770.55
  Z"
/>
<path fill="#0d0d14" d="
  M 622.93 770.53
  A 0.72 0.72 0.0 0 1 622.21 769.81
  L 622.20 769.43
  A 9.18 8.79 89.8 0 1 630.96 760.22
  L 631.04 760.22
  A 9.18 8.79 89.8 0 1 639.86 769.37
  L 639.87 769.75
  A 0.72 0.72 0.0 0 1 639.15 770.47
  L 622.93 770.53
  Z"
/>
<path fill="#0d0d14" d="
  M 330.57 761.01
  C 338.51 761.09 340.93 768.76 340.87 775.30
  C 340.80 781.83 338.23 789.46 330.29 789.38
  C 322.35 789.30 319.92 781.63 319.99 775.09
  C 320.05 768.56 322.62 760.93 330.57 761.01
  Z"
/>
<path fill="#0d0d14" d="
  M 560.71 776.95
  Q 561.00 779.25 560.38 781.93
  Q 558.48 790.18 550.04 789.21
  Q 548.05 788.99 546.83 787.12
  Q 544.22 783.13 547.67 779.64
  C 550.33 776.96 556.04 776.55 560.02 776.37
  A 0.67 0.66 84.8 0 1 560.71 776.95
  Z"
/>
<ellipse fill="#fffefe" cx="0.00" cy="0.00" transform="translate(698.51,790.64) rotate(-81.3)" rx="7.80" ry="7.56"/>
</svg>
