<svg version="1.2" xmlns="http://www.w3.org/2000/svg" viewBox="0 0 1200 1050" width="1200" height="1200">
	<style>
		.s0 { fill: none;stroke: #18161f;stroke-width: 3.7 } 
		.s1 { fill: none;stroke: #6b365c;stroke-width: 3.7 } 
		.s2 { fill: none;stroke: #612e59;stroke-width: 3.7 } 
		.s3 { fill: none;stroke: #542959;stroke-width: 3.7 } 
		.s4 { fill: none;stroke: #46295c;stroke-width: 3.7 } 
		.s5 { fill: none;stroke: #3b2960;stroke-width: 3.7 } 
		.s6 { fill: none;stroke: #151527;stroke-width: 3.7 } 
		.s7 { fill: none;stroke: #1e142d;stroke-width: 3.7 } 
		.s8 { fill: none;stroke: #211b37;stroke-width: 3.7 } 
		.s9 { fill: none;stroke: #271d3f;stroke-width: 3.7 } 
		.s10 { fill: none;stroke: #453768;stroke-width: 3.7 } 
		.s11 { fill: none;stroke: #4b3e6b;stroke-width: 3.7 } 
		.s12 { fill: none;stroke: #584a6f;stroke-width: 3.7 } 
		.s13 { fill: none;stroke: #635073;stroke-width: 3.7 } 
		.s14 { fill: none;stroke: #824664;stroke-width: 3.7 } 
		.s15 { fill: none;stroke: #753e60;stroke-width: 3.7 } 
		.s16 { fill: none;stroke: #ea76b0;stroke-width: 3.7 } 
		.s17 { fill: none;stroke: #864579;stroke-width: 3.7 } 
		.s18 { fill: none;stroke: #d367a8;stroke-width: 3.7 } 
		.s19 { fill: none;stroke: #7c3d75;stroke-width: 3.7 } 
		.s20 { fill: none;stroke: #be57a1;stroke-width: 3.7 } 
		.s21 { fill: none;stroke: #934d7d;stroke-width: 3.7 } 
		.s22 { fill: none;stroke: #e264a4;stroke-width: 3.7 } 
		.s23 { fill: none;stroke: #d6609b;stroke-width: 3.7 } 
		.s24 { fill: none;stroke: #c962a9;stroke-width: 3.7 } 
		.s25 { fill: none;stroke: #ba61ac;stroke-width: 3.7 } 
		.s26 { fill: none;stroke: #b062b0;stroke-width: 3.7 } 
		.s27 { fill: none;stroke: #4c3079;stroke-width: 3.7 } 
		.s28 { fill: none;stroke: #322250;stroke-width: 3.7 } 
		.s29 { fill: none;stroke: #261c40;stroke-width: 3.7 } 
		.s30 { fill: none;stroke: #723572;stroke-width: 3.7 } 
		.s31 { fill: none;stroke: #a84a9e;stroke-width: 3.7 } 
		.s32 { fill: none;stroke: #775d95;stroke-width: 3.7 } 
		.s33 { fill: none;stroke: #965387;stroke-width: 3.7 } 
		.s34 { fill: none;stroke: #695188;stroke-width: 3.7 } 
		.s35 { fill: none;stroke: #7e326d;stroke-width: 3.7 } 
		.s36 { fill: none;stroke: #a84390;stroke-width: 3.7 } 
		.s37 { fill: none;stroke: #c1458b;stroke-width: 3.7 } 
		.s38 { fill: none;stroke: #8d45a1;stroke-width: 3.7 } 
		.s39 { fill: none;stroke: #7445a8;stroke-width: 3.7 } 
		.s40 { fill: none;stroke: #6d2b54;stroke-width: 3.7 } 
		.s41 { fill: none;stroke: #c14c99;stroke-width: 3.7 } 
		.s42 { fill: none;stroke: #61274b;stroke-width: 3.7 } 
		.s43 { fill: none;stroke: #1f1d32;stroke-width: 3.7 } 
		.s44 { fill: none;stroke: #433173;stroke-width: 3.7 } 
		.s45 { fill: none;stroke: #2f2551;stroke-width: 3.7 } 
		.s46 { fill: none;stroke: #653072;stroke-width: 3.7 } 
		.s47 { fill: none;stroke: #5c316b;stroke-width: 3.7 } 
		.s48 { fill: none;stroke: #ae8cce;stroke-width: 3.7 } 
		.s49 { fill: none;stroke: #74578c;stroke-width: 3.7 } 
		.s50 { fill: none;stroke: #5f4c8d;stroke-width: 3.7 } 
		.s51 { fill: none;stroke: #967bc6;stroke-width: 3.7 } 
		.s52 { fill: none;stroke: #6c5792;stroke-width: 3.7 } 
		.s53 { fill: none;stroke: #46326b;stroke-width: 3.7 } 
		.s54 { fill: none;stroke: #55398b;stroke-width: 3.7 } 
		.s55 { fill: none;stroke: #3b2b61;stroke-width: 3.7 } 
		.s56 { fill: none;stroke: #382458;stroke-width: 3.7 } 
		.s57 { fill: none;stroke: #4d306f;stroke-width: 3.7 } 
		.s58 { fill: none;stroke: #8368bf;stroke-width: 3.7 } 
		.s59 { fill: none;stroke: #53467d;stroke-width: 3.7 } 
		.s60 { fill: none;stroke: #5c4584;stroke-width: 3.7 } 
		.s61 { fill: none;stroke: #4d3e7b;stroke-width: 3.7 } 
		.s62 { fill: none;stroke: #563e81;stroke-width: 3.7 } 
		.s63 { fill: none;stroke: #868689;stroke-width: 3.7 } 
		.s64 { fill: #dd6eab } 
		.s65 { fill: #352859 } 
		.s66 { fill: #f67eb4 } 
		.s67 { fill: #c85fa4 } 
		.s68 { fill: #b992d1 } 
		.s69 { fill: #b44e9e } 
		.s70 { fill: #9b459d } 
		.s71 { fill: #2f1b46 } 
		.s72 { fill: #7e44a4 } 
		.s73 { fill: #6945ac } 
		.s74 { fill: #1c1c39 } 
		.s75 { fill: #b54182 } 
		.s76 { fill: #a386ca } 
		.s77 { fill: #cd4993 } 
		.s78 { fill: #412d69 } 
		.s79 { fill: #0d0d14 } 
		.s80 { fill: #221e2a } 
		.s81 { fill: #896fc1 } 
		.s82 { fill: #7d60bc } 
		.s83 { fill: #fffefe } 
	</style>
	<g>
		<path fill-rule="evenodd" class="s0" d="m-290.86-295.51q-21.21 1.02-42.43 2.18c-4.37 0.25-7.89-0.31-7.91 4.69q-0.01 3.31-0.16 26.77-0.47 73.76-0.19 495.23 0.11 164.96 0.11 333.24 0 46.63-0.24 993.03 0 20.46 0.67 48.84 0.09 4.24 1.12 5.46 1.78 2.11 5.14 1.98 8.38-0.32 30.08-0.38 208.74-0.5 1178.84-0.35 54.28 0 55.47 0.02c48.57 0.54 88.62-0.21 138.6 0.03q64.36 0.3 133.16 0.12 183.29-0.51 361.37 0.11 0.44 0 0.86-0.17 0.39-0.17 0.71-0.49 0.31-0.31 0.48-0.71 0.17-0.41 0.17-0.86v-1904.33q0-0.11-0.02-0.21-0.02-0.11-0.04-0.2-0.03-0.1-0.07-0.19-0.06-0.09-0.11-0.19-1.5-2.05-5.07-2.09-8.6-0.06-28.6-1.53"/>
		<path fill-rule="evenodd" class="s1" d="m491.63 120.64q-50.66 5.68-97.89 23.85"/>
		<path fill-rule="evenodd" class="s2" d="m393.74 144.49q-5.98 2.11-11.83 4.58-50.51 21.29-94.27 54.43"/>
		<path fill-rule="evenodd" class="s3" d="m287.64 203.5q-35.81 27.85-65.3 62.56-3.44 4.03-6.66 8.43"/>
		<path fill-rule="evenodd" class="s4" d="m215.68 274.49c-34.8 42.69-60.05 93.87-74.76 146.65"/>
		<path fill-rule="evenodd" class="s5" d="m140.92 421.14q-23.95 86.5-5.03 175.44"/>
		<path fill-rule="evenodd" class="s6" d="m135.89 596.58l-1.46 23.01"/>
		<path fill-rule="evenodd" class="s7" d="m134.43 619.59q-0.92 29.01 3.74 57.79"/>
		<path fill-rule="evenodd" class="s8" d="m138.17 677.38c4.52 33.22 15.96 66.38 30.35 96.51"/>
		<path fill-rule="evenodd" class="s9" d="m168.52 773.89q8.53 17.94 19.12 34.54 43.65 68.3 111.82 112 60.99 39.1 132.11 51.51"/>
		<path fill-rule="evenodd" class="s8" d="m431.57 971.94q61.1 11.46 122.13 1.99"/>
		<path fill-rule="evenodd" class="s7" d="m553.7 973.93q29.53-4.45 56.86-12.25"/>
		<path fill-rule="evenodd" class="s10" d="m610.56 961.68c103.03 15.95 210.97-4.67 298.11-62.2"/>
		<path fill-rule="evenodd" class="s11" d="m908.67 899.48q56.56-36.58 98.97-88.28"/>
		<path fill-rule="evenodd" class="s12" d="m1007.64 811.2q55.97-67.8 80.21-151.31"/>
		<path fill-rule="evenodd" class="s13" d="m1087.85 659.89q25.4-89.27 11.81-180.38-16.56-111.17-86.02-198.99-86.09-108.86-220.2-146.11"/>
		<path fill-rule="evenodd" class="s8" d="m793.44 134.41c-49.66-12.41-102.11-18.58-152.3-11.76q-2.39 0.32-10.77 2.68-0.09 0.02-0.2 0.05-0.1 0.04-0.21 0.1-0.09 0.03-0.18 0.07-0.1 0.06-0.19 0.11-3.2 1.82-7.27 1.5"/>
		<path fill-rule="evenodd" class="s14" d="m622.32 127.16q-4.19-0.52-17.87-3.27-8.82-1.78-28.79-3.7"/>
		<path fill-rule="evenodd" class="s15" d="m575.66 120.19q-42.28-4.1-84.03 0.45"/>
		<path fill-rule="evenodd" class="s16" d="m575.66 120.19l-3.12 0.11q-0.18 0-0.35 0.09-0.17 0.08-0.3 0.21-0.13 0.13-0.19 0.32-0.07 0.16-0.06 0.35c2.9 50.9 2.08 98.88 7.91 152.51"/>
		<path fill-rule="evenodd" class="s17" d="m579.55 273.78q-45.61-3.09-90.91 3.29"/>
		<path fill-rule="evenodd" class="s18" d="m488.64 277.07q0.05-77.99 2.99-156.43"/>
		<path fill-rule="evenodd" class="s19" d="m488.64 277.07q-41.46 6.65-81.54 19.88"/>
		<path fill-rule="evenodd" class="s20" d="m407.1 296.95q-4.11-48.35-7.83-115.17-0.95-17.14-5.53-37.29"/>
		<path fill-rule="evenodd" class="s21" d="m807.57 226.77c72.8 70.65 112.62 162.33 113.27 264.5"/>
		<path fill-rule="evenodd" class="s22" d="m920.84 491.27l-1.08 1.27q-0.1 0.11-0.23 0.17-0.13 0.04-0.28 0.04-0.15-0.02-0.26-0.11-0.11-0.08-0.19-0.21l-19.53-39.4"/>
		<path fill-rule="evenodd" class="s23" d="m899.27 453.03q-24.41-39.1-58.34-69.53"/>
		<path fill-rule="evenodd" class="s24" d="m840.93 383.5l-18.37-15.86"/>
		<path fill-rule="evenodd" class="s25" d="m822.56 367.64q-42.28-34.22-91.68-56.14"/>
		<path fill-rule="evenodd" class="s26" d="m730.88 311.5q-15.61-7.28-38.52-15.14-45.91-15.76-91.99-20.12"/>
		<path fill-rule="evenodd" class="s21" d="m600.37 276.24l-20.82-2.46"/>
		<path fill-rule="evenodd" class="s27" d="m600.37 276.24q33.65 11.35 60.36 25.48 13.08 6.92 25.92 17.57"/>
		<path fill-rule="evenodd" class="s7" d="m686.65 319.29q-4.5 0.82-8.74 0.34-48.73-5.48-96.15 8.22"/>
		<path fill-rule="evenodd" class="s28" d="m581.76 327.85c-48.94-11.94-106.47-11.42-153.26 8.94-24.91 10.84-50.09 31.9-56.48 58.39-6.54 27.03 9.98 46.84 28.54 63.94"/>
		<path fill-rule="evenodd" class="s7" d="m400.56 459.12q-16.26 22.58-24.19 38.13-6.22 12.19-12.56 24.04"/>
		<path fill-rule="evenodd" class="s29" d="m363.81 521.29q-22.67-31.12-31.23-67.68-3.65-15.61-4.88-38.94-1.38-26-4.22-47.23-0.04-0.26-0.02-0.54 0.02-0.26 0.07-0.53 0.08-0.26 0.19-0.5 0.11-0.24 0.26-0.47 14.23-19.57 35.23-40.33c2.83-2.77 4.72-6.68 0.43-9.46"/>
		<path fill-rule="evenodd" class="s30" d="m407.1 296.95l-38.78 14.28"/>
		<path fill-rule="evenodd" class="s31" d="m368.32 311.23c-25.16-39.19-49.95-70.93-80.68-107.73"/>
		<path fill-rule="evenodd" class="s32" d="m793.44 134.41q-3.53 1.29 2.47 6.43 12.05 10.34 23.59 21.25 17.47 16.55 41.79 49.55"/>
		<path fill-rule="evenodd" class="s28" d="m861.29 211.64q-27.89 3.82-53.72 15.13"/>
		<path fill-rule="evenodd" class="s33" d="m807.57 226.77c-51.91-49.95-115.57-82.56-185.25-99.61"/>
		<path fill-rule="evenodd" class="s34" d="m951.38 447.5q4.53 57.86-4 114.86"/>
		<path fill-rule="evenodd" class="s28" d="m947.38 562.36q-8.69 6.18-18.24 10.43-9.35 4.16-12.41 13.27-2.58 7.7-3.63 18.05"/>
		<path fill-rule="evenodd" class="s7" d="m913.1 604.11l0.84-45.38"/>
		<path fill-rule="evenodd" class="s35" d="m913.94 558.73q6.42-33.22 6.9-67.46"/>
		<path fill-rule="evenodd" class="s36" d="m840.93 383.5q-45.86 5.64-90.69 16.2"/>
		<path fill-rule="evenodd" class="s37" d="m899.27 453.03q-47.38 7.1-93.72 17.25c-10.58 2.32-24.75 4.77-37.18 6.71q-0.18 0.04-0.37 0.13-0.17 0.09-0.3 0.24-0.13 0.15-0.2 0.32-0.08 0.19-0.1 0.39l-0.41 5.89"/>
		<path fill-rule="evenodd" class="s38" d="m822.56 367.64l-84.45 8.38"/>
		<path fill-rule="evenodd" class="s4" d="m738.11 376.02q-17.74-28.75-43.89-50.81"/>
		<path fill-rule="evenodd" class="s39" d="m730.88 311.5l-36.66 13.71"/>
		<path fill-rule="evenodd" class="s5" d="m694.22 325.21l-7.57-5.92"/>
		<path fill-rule="evenodd" class="s40" d="m913.94 558.73q-7.38 28.13-13.77 44.93-22.23 58.55-66.34 107.65"/>
		<path fill-rule="evenodd" class="s41" d="m833.83 711.31q-16.09-23.61-30.62-39.67-25.86-28.56-32.65-36.61-20.19-23.95-33.35-52.69"/>
		<path fill-rule="evenodd" class="s3" d="m738.11 376.02l12.13 23.68"/>
		<path fill-rule="evenodd" class="s42" d="m750.24 399.7q17.27 40.66 16.75 84.26"/>
		<path fill-rule="evenodd" class="s40" d="m766.99 483.96q-1.61 53.63-29.78 98.38"/>
		<path fill-rule="evenodd" class="s2" d="m737.21 582.34q-21.9 32.87-55 54.84"/>
		<path fill-rule="evenodd" class="s3" d="m682.21 637.18q-45.84 29.12-100.96 33.68"/>
		<path fill-rule="evenodd" class="s4" d="m581.25 670.86c-52.95 3.44-102.5-9.1-149.59-32.84"/>
		<path fill-rule="evenodd" class="s5" d="m431.66 638.02q-44.71-22.09-82.78-54.86-2.28-1.96-4.13-4.24"/>
		<path fill-rule="evenodd" class="s0" d="m344.75 578.92l1.77-10"/>
		<path fill-rule="evenodd" class="s8" d="m581.76 327.85q-42.56 12.82-75.91 32.95-61.44 37.09-105.29 98.32"/>
		<path fill-rule="evenodd" class="s6" d="m363.81 521.29q-1.79 4.88-7.81 18.13-5.21 11.53-9.48 29.5"/>
		<path fill-rule="evenodd" class="s43" d="m346.52 568.92l-4.58 7.68"/>
		<path fill-rule="evenodd" class="s44" d="m341.94 576.6l-35.32-32.53"/>
		<path fill-rule="evenodd" class="s45" d="m306.62 544.07l-27.65-29.51q-0.18-0.2-0.39-0.43-0.19-0.2-0.37-0.43-0.19-0.22-0.36-0.45-0.19-0.24-0.35-0.46l-8.15-11.07q-0.27-0.36-0.66-0.49-0.41-0.15-0.82-0.03-0.43 0.11-0.71 0.43-0.28 0.31-0.34 0.74-6.56 51.05 0.26 99.18"/>
		<path fill-rule="evenodd" class="s29" d="m267.08 601.55c-28.05 7.03-50.93 8.75-84.46 11.31q-22.3 1.72-48.19 6.73"/>
		<path fill-rule="evenodd" class="s44" d="m135.89 596.58q2.39-5.68 2.93-16.41 0.53-10.39 6.66-31.18 9.29-31.57 24.09-61.01 2.86-5.7 9.64-16.45"/>
		<path fill-rule="evenodd" class="s46" d="m368.32 311.23l-8.68 4.38"/>
		<path fill-rule="evenodd" class="s47" d="m359.64 315.61q-44.82 21.18-84.63 51.14"/>
		<path fill-rule="evenodd" class="s38" d="m275.01 366.75q-10.45-22.73-22.71-39.91-25.03-35.08-36.62-52.35"/>
		<path fill-rule="evenodd" class="s48" d="m1087.85 659.89q-11.29-31.59-31.18-52.69-16.95-18-34.41-34.98c-23.34-22.69-43.59-48.65-56.5-78.74q-9.44-22.02-14.38-45.98"/>
		<path fill-rule="evenodd" class="s49" d="m951.38 447.5c-8.8-85.71-38.67-166.47-90.09-235.86"/>
		<path fill-rule="evenodd" class="s50" d="m911.96 686.22q-11.62 26.81-26.33 51.97"/>
		<path fill-rule="evenodd" class="s28" d="m885.63 738.19q-0.9-7.8 2.26-15.11"/>
		<path fill-rule="evenodd" class="s8" d="m913.1 604.11c-1.79 19.65-3.27 40.77-6.95 58.88q-6.3 30.9-18.26 60.09"/>
		<path fill-rule="evenodd" class="s7" d="m887.89 723.08l-15.16 21.05"/>
		<path fill-rule="evenodd" class="s6" d="m872.73 744.13l-6.79 4.47q-0.2 0.13-0.41 0.28-0.18 0.15-0.37 0.3-0.19 0.17-0.37 0.33-0.19 0.17-0.36 0.34-21.63 22.28-44.24 40.21-32.83 25.98-73.01 44.18c-26.49 12-53.01 21.46-82.38 27.48"/>
		<path fill-rule="evenodd" class="s7" d="m664.8 861.72q-62.74 13.55-126.54 5.55"/>
		<path fill-rule="evenodd" class="s8" d="m538.26 867.27q-64.22-8.88-120.28-40.56"/>
		<path fill-rule="evenodd" class="s9" d="m417.98 826.71q-34.07-19.48-61.42-46.88"/>
		<path fill-rule="evenodd" class="s8" d="m356.56 779.83q-27.59-26.8-47.21-59.87-2.7-4.52-1.05-5.94"/>
		<path fill-rule="evenodd" class="s4" d="m587.35 828.92q52.99-3.31 102.97-21.09"/>
		<path fill-rule="evenodd" class="s3" d="m690.32 807.83q56.88-20.99 103.53-58.88"/>
		<path fill-rule="evenodd" class="s2" d="m793.85 748.95q21.5-17.7 39.98-37.64"/>
		<path fill-rule="evenodd" class="s51" d="m1007.64 811.2q-13.45-22.83-26.37-36.77-23.57-25.44-47.16-50.86-15.21-16.37-22.15-37.35"/>
		<path fill-rule="evenodd" class="s52" d="m911.96 686.22c16.99-39.32 29.46-81.34 35.42-123.86"/>
		<path fill-rule="evenodd" class="s31" d="m793.85 748.95q-53.94-57.79-111.64-111.77"/>
		<path fill-rule="evenodd" class="s38" d="m690.32 807.83c-20.19-25.64-39.12-45.23-59.89-66.97q-29.89-31.29-49.18-70"/>
		<path fill-rule="evenodd" class="s53" d="m341.94 576.6l2.81 2.32"/>
		<path fill-rule="evenodd" class="s39" d="m431.66 638.02c29.29 33.1 58.38 70.13 84.73 101.4 28.56 33.91 45.82 55.18 70.96 89.5"/>
		<path fill-rule="evenodd" class="s5" d="m587.35 828.92q-107.2 4.97-200.02-49.61-7.97-4.67-10.94-6.94"/>
		<path fill-rule="evenodd" class="s54" d="m306.62 544.07q1.4 22.77 4.07 45.24c7.7 64.8 32.02 127.29 65.7 183.06"/>
		<path fill-rule="evenodd" class="s9" d="m376.39 772.37q-18.26-10.99-28.46-20.03-9.31-8.23-18.6-16.51-6.17-5.49-10.88-10.54-5.05-5.42-10.15-11.27"/>
		<path fill-rule="evenodd" class="s55" d="m308.3 714.02q-10.11-13.05-13.46-21.65-5.03-12.86-11.1-25.25"/>
		<path fill-rule="evenodd" class="s56" d="m283.74 667.12q-11.1-32-16.66-65.57"/>
		<path fill-rule="evenodd" class="s57" d="m275.01 366.75q-5.37 4.33-10.95 8.82-50.81 40.64-84.85 95.96"/>
		<path fill-rule="evenodd" class="s39" d="m179.21 471.53q-20.65-24.24-38.29-50.39"/>
		<path fill-rule="evenodd" class="s28" d="m283.74 667.12c-32.67 4.45-60.08 4.81-90.43 5.4q-27.67 0.55-55.14 4.86"/>
		<path fill-rule="evenodd" class="s29" d="m861.31 775.21l11.42-31.08"/>
		<path fill-rule="evenodd" class="s58" d="m908.67 899.48c-22.35-32.4-47.1-59.22-76.09-86.45"/>
		<path fill-rule="evenodd" class="s59" d="m832.58 813.03l28.73-37.82"/>
		<path fill-rule="evenodd" class="s60" d="m861.31 775.21q13.59-17.75 24.32-37.02"/>
		<path fill-rule="evenodd" class="s55" d="m417.98 826.71q14.13 71.63 13.59 145.23"/>
		<path fill-rule="evenodd" class="s61" d="m832.58 813.03q-66.88 77.55-159.27 123.62"/>
		<path fill-rule="evenodd" class="s29" d="m673.31 936.65q1.81-38.65-8.51-74.93"/>
		<path fill-rule="evenodd" class="s28" d="m538.26 867.27q12.64 52.67 15.44 106.66"/>
		<path fill-rule="evenodd" class="s55" d="m356.56 779.83q-40.86-5.57-82.06-6.22-52.86-0.86-105.98 0.28"/>
		<path fill-rule="evenodd" class="s62" d="m610.56 961.68q33.59-10.5 62.75-25.03"/>
		<path class="s63" d="m1117.08 1085.2q0-2.64-1.01-5.09-1-2.45-2.87-4.32-1.87-1.86-4.32-2.87-2.45-1.01-5.09-1.01-2.63 0-5.08 1.01-2.45 1.01-4.32 2.87-1.87 1.87-2.88 4.32-1.01 2.45-1.01 5.09 0 2.63 1.01 5.08 1.01 2.45 2.88 4.32 1.87 1.87 4.32 2.88 2.45 1.01 5.08 1.01 2.64 0 5.09-1.01 2.45-1.01 4.32-2.88 1.87-1.87 2.87-4.32 1.01-2.45 1.01-5.08z"/>
		<path class="s63" d="m611.85 1143.29q-0.17-0.21-0.21-0.49-0.05-0.26 0.02-0.52 0.08-0.24 0.27-0.45 0.18-0.19 0.44-0.28 21.95-7.77 24.66-29.14 2.3-18.07-11.39-27.85c-4.5-3.23-14.48-6.47-19.81-7.01q-23.01-2.3-47.89 1.57-0.2 0.04-0.39 0.13-0.19 0.11-0.34 0.26-0.13 0.17-0.2 0.38-0.08 0.18-0.08 0.41v113.98q0 0.19 0.08 0.37 0.07 0.17 0.2 0.3 0.15 0.13 0.32 0.21 0.19 0.07 0.38 0.07h20.39q0.26 0 0.52-0.09 0.25-0.11 0.43-0.3 0.19-0.19 0.3-0.43 0.09-0.26 0.09-0.52v-44.43q0-0.25 0.08-0.47 0.09-0.2 0.24-0.39 0.15-0.19 0.36-0.3 0.2-0.13 0.43-0.17 11.16-2.07 16.6 7.18 0.26 0.43 8.54 15.74 5.57 10.28 14.8 22.26 0.36 0.47 0.82 0.84 0.47 0.39 0.99 0.65 0.55 0.27 1.13 0.4 0.58 0.13 1.17 0.13h22.75q0.38 0 0.69-0.19 0.3-0.21 0.47-0.52 0.17-0.32 0.15-0.69-0.04-0.36-0.24-0.66-31.24-43.7-32.23-45.44c-1.12-1.96-3.31-2.91-4.54-4.54z"/>
		<path class="s63" d="m166.06 1144.32q11.25 0 23.96 0.09 0.15 0 0.3 0.06 0.13 0.07 0.24 0.18 0.11 0.12 0.17 0.25 0.06 0.15 0.06 0.3v48.89q0 0.23 0.09 0.43 0.07 0.21 0.24 0.36 0.15 0.17 0.36 0.24 0.2 0.09 0.43 0.09h20.65q0.19 0 0.37-0.07 0.17-0.07 0.3-0.21 0.13-0.13 0.21-0.29 0.07-0.19 0.07-0.38v-116.11q0-0.19-0.07-0.37-0.08-0.17-0.21-0.3-0.15-0.13-0.31-0.21-0.19-0.07-0.38-0.07h-20.65q-0.23 0-0.43 0.07-0.19 0.09-0.36 0.24-0.15 0.17-0.24 0.36-0.07 0.2-0.07 0.43v44.63q0 0.15-0.06 0.28-0.06 0.14-0.15 0.25-0.09 0.09-0.22 0.15-0.14 0.07-0.27 0.07-2.73 0.1-24.03 0.1-21.31 0-24.02-0.1-0.15 0-0.28-0.05-0.13-0.06-0.23-0.17-0.09-0.11-0.15-0.25-0.05-0.13-0.05-0.28l0.02-44.63q0-0.23-0.08-0.43-0.09-0.19-0.24-0.36-0.17-0.15-0.36-0.24-0.2-0.07-0.43-0.07h-20.65q-0.19 0-0.38 0.07-0.16 0.08-0.31 0.21-0.13 0.13-0.21 0.3-0.07 0.18-0.07 0.37l-0.02 116.11q0 0.19 0.07 0.38 0.08 0.16 0.21 0.29 0.13 0.14 0.3 0.21 0.18 0.07 0.37 0.07h20.66q0.22 0 0.43-0.09 0.2-0.07 0.35-0.24 0.17-0.15 0.24-0.36 0.1-0.2 0.1-0.43v-48.89q0-0.15 0.05-0.3 0.06-0.15 0.17-0.26 0.11-0.12 0.26-0.17 0.15-0.06 0.3-0.06 12.71-0.09 23.95-0.09z"/>
		<path class="s63" d="m1016.75 1077.31q-0.1 0-0.19 0.02-0.09 0.03-0.17 0.09-0.07 0.06-0.13 0.13-0.05 0.08-0.07 0.17l-37.12 116.71q-0.04 0.13-0.02 0.26 0.02 0.13 0.11 0.24 0.07 0.12 0.19 0.17 0.13 0.08 0.26 0.08h22.82q0.09 0 0.19-0.04 0.09-0.02 0.17-0.07 0.07-0.08 0.13-0.15 0.05-0.08 0.07-0.17l8.6-30.81q0.02-0.09 0.07-0.16 0.06-0.08 0.13-0.15 0.08-0.06 0.17-0.08 0.1-0.04 0.19-0.04h35.4q0.09 0 0.19 0.04 0.09 0.02 0.17 0.08 0.07 0.07 0.13 0.15 0.05 0.07 0.07 0.16l8.41 30.83q0.02 0.09 0.08 0.16 0.05 0.08 0.13 0.15 0.07 0.06 0.17 0.08 0.09 0.04 0.18 0.04h24.1q0.13 0 0.26-0.08 0.11-0.05 0.19-0.17 0.09-0.11 0.11-0.24 0.02-0.13-0.02-0.26l-36.9-116.73q-0.02-0.09-0.07-0.17-0.06-0.07-0.13-0.13-0.08-0.06-0.17-0.09-0.09-0.02-0.19-0.02z"/>
		<path class="s63" d="m735.03 1129.07h8.05q0.28 0 0.55 0.11 0.26 0.09 0.44 0.3 0.21 0.18 0.32 0.45 0.11 0.26 0.11 0.54 0.23 11.46 0.14 33.83c-0.04 10.99 0.37 20.22 8.78 27.51 7.55 6.53 21.37 5.63 30.45 3.39q0.47-0.12 0.86-0.38 0.41-0.26 0.71-0.63 0.28-0.38 0.45-0.83 0.15-0.44 0.15-0.93v-13.23q0-0.41-0.19-0.81-0.19-0.37-0.5-0.61-0.34-0.27-0.75-0.34-0.41-0.09-0.82 0.02c-15.35 4.17-17.8-7.52-17.28-20.02q0.08-1.72 0.06-27.48 0-0.17 0.08-0.33 0.05-0.15 0.16-0.28 0.13-0.12 0.28-0.17 0.17-0.08 0.34-0.08h17.66q0.38 0 0.71-0.15 0.36-0.13 0.62-0.39 0.26-0.26 0.39-0.62 0.15-0.33 0.15-0.71v-13.27q0-0.41-0.16-0.8-0.15-0.37-0.45-0.67-0.3-0.3-0.68-0.45-0.39-0.17-0.8-0.17h-16.39q-0.32 0-0.62-0.13-0.3-0.11-0.52-0.34-0.23-0.22-0.34-0.52-0.13-0.3-0.13-0.62v-21.1q0-0.26-0.11-0.49-0.11-0.22-0.32-0.39-0.21-0.15-0.45-0.19-0.26-0.05-0.5 0.02l-19.46 5.29q-0.23 0.06-0.41 0.19-0.19 0.13-0.32 0.3-0.13 0.18-0.21 0.39-0.07 0.22-0.07 0.45v16.35q0 0.21-0.08 0.42-0.09 0.18-0.22 0.33-0.15 0.15-0.35 0.24-0.19 0.08-0.4 0.08h-9.27q-0.35 0-0.67 0.13-0.32 0.13-0.56 0.39-0.26 0.25-0.39 0.56-0.14 0.32-0.14 0.68v13.04q0 0.41 0.17 0.81 0.15 0.39 0.45 0.69 0.3 0.3 0.67 0.45 0.4 0.17 0.81 0.17z"/>
		<path class="s63" d="m273.83 1196.56c24.96-1.61 40.6-17.12 41.46-42 0.97-27.66-18.06-45.79-45.25-44.06-24.94 1.63-40.58 17.13-41.44 42-0.97 27.69 18.05 45.82 45.23 44.06z"/>
		<path class="s63" d="m329.27 1112.88v80.86q0 0.3 0.11 0.58 0.12 0.26 0.32 0.48 0.23 0.21 0.49 0.32 0.28 0.11 0.58 0.11h19.17q0.34 0 0.68-0.13 0.31-0.13 0.56-0.37 0.24-0.24 0.37-0.56 0.13-0.32 0.13-0.66 0.1-33.04-0.09-43.14-0.21-11.1 2.78-15.51 4.55-6.77 14.4-5.96c10.09 0.82 12.15 10.11 12.3 18.54q0.29 17.06-0.02 46.43 0 0.26 0.09 0.5 0.09 0.25 0.28 0.43 0.19 0.19 0.43 0.3 0.24 0.1 0.51 0.1h19.51q0.34 0 0.65-0.13 0.3-0.14 0.55-0.38 0.24-0.24 0.35-0.54 0.13-0.32 0.13-0.65-0.35-35.76 0.13-49.11 0.49-13.64 12.69-15.74c14.58-2.52 16.51 11.39 16.51 22.14q-0.04 41.06-0.02 43.49 0 0.19 0.07 0.37 0.08 0.17 0.21 0.3 0.13 0.13 0.32 0.21 0.17 0.07 0.35 0.07h20.04q0.3 0 0.56-0.11 0.28-0.11 0.49-0.32 0.2-0.22 0.33-0.48 0.12-0.28 0.12-0.58 0.13-25.44 0.03-51.42c-0.05-13.07-5.81-27.16-19.49-30.58q-18.19-4.56-31.85 8-4.02 3.7-4.23 3.87-0.17 0.15-0.39 0.22-0.22 0.08-0.45 0.04-0.22-0.02-0.41-0.13-0.2-0.11-0.34-0.3c-4.05-5.81-7.6-10.19-15.02-11.85q-20.13-4.51-32.43 11.14-0.19 0.24-0.47 0.32-0.3 0.09-0.58-0.02-0.28-0.1-0.45-0.34-0.19-0.26-0.19-0.56v-7.89q0-0.45-0.16-0.86-0.17-0.39-0.49-0.71-0.32-0.31-0.73-0.48-0.41-0.17-0.86-0.17h-16.71q-0.17 0-0.34 0.07-0.15 0.06-0.28 0.17-0.11 0.13-0.16 0.28-0.08 0.17-0.08 0.34z"/>
		<path class="s63" d="m534.99 1176.5c-14.86 4.88-41.94 6.81-45.53-15.02q-0.04-0.28 0.04-0.55 0.07-0.28 0.24-0.48 0.19-0.21 0.43-0.34 0.26-0.11 0.54-0.11h52.13q0.21 0 0.37-0.07 0.19-0.06 0.34-0.19 0.15-0.11 0.24-0.28 0.1-0.17 0.14-0.36c2.82-16.67-2.17-40.28-19.8-45.98q-20.28-6.52-35.34 2.45-16.08 9.57-19.78 29.18c-2.73 14.43-0.26 32.86 11.85 42.71 15.59 12.65 39.4 10.95 57.87 4.8q0.47-0.17 0.86-0.48 0.39-0.32 0.62-0.77 0.24-0.43 0.29-0.94 0.06-0.48-0.07-0.97l-3.08-11.34q-0.1-0.38-0.34-0.66-0.24-0.3-0.58-0.48-0.32-0.17-0.71-0.21-0.37-0.02-0.73 0.09z"/>
		<path class="s63" d="m703.78 1186.26v7.37q0 0.31 0.13 0.61 0.11 0.28 0.33 0.51 0.23 0.22 0.53 0.35 0.3 0.11 0.61 0.11h18.77q0.24 0 0.45-0.09 0.2-0.11 0.37-0.28 0.15-0.19 0.21-0.41 0.05-0.24 0.02-0.47c-1.76-9.96-0.98-25.53-1.14-50.3q-0.08-12.61-8.47-23.92-0.15-0.19-0.3-0.38-0.17-0.16-0.34-0.33-0.16-0.17-0.35-0.32-0.19-0.17-0.38-0.3-6.87-4.91-10.86-5.87-23.08-5.53-46.5 5.52-0.09 0.03-0.17 0.13-0.09 0.07-0.13 0.17-0.06 0.09-0.06 0.2-0.01 0.11 0.02 0.21l4.3 15.73q0.02 0.06 0.06 0.1 0.04 0.04 0.09 0.07 0.04 0.02 0.1 0.02 0.05-0.02 0.11-0.04 8.43-4.93 16.8-6.84c5.23-1.19 17.22-1.34 20.49 4.53q1.92 3.44 1.89 7.87 0 0.33-0.14 0.65-0.13 0.34-0.35 0.58-0.24 0.24-0.56 0.39-0.32 0.15-0.66 0.19c-13.66 1.06-23.77 1.62-33.94 7.92-9.87 6.15-14.04 16.83-12.15 27.78 4.34 25.25 36.34 23.36 49.87 8.04q0.15-0.19 0.39-0.25 0.23-0.05 0.45 0.02 0.23 0.1 0.37 0.3 0.14 0.19 0.14 0.43z"/>
		<path class="s63" d="m861.36 1176.36c-14.78 4.93-41.73 6.95-45.42-14.77q-0.03-0.28 0.04-0.54 0.08-0.28 0.24-0.49 0.19-0.2 0.43-0.34 0.27-0.11 0.55-0.11l51.92-0.22q0.19 0 0.38-0.08 0.18-0.05 0.33-0.18 0.13-0.13 0.23-0.28 0.09-0.17 0.13-0.36c2.74-16.62-2.32-40.11-19.91-45.72q-20.22-6.41-35.2 2.6-15.98 9.59-19.57 29.14c-2.65 14.39-0.13 32.73 11.99 42.49 15.58 12.54 39.29 10.74 57.66 4.54q0.47-0.17 0.86-0.49 0.37-0.32 0.62-0.76 0.24-0.43 0.28-0.94 0.05-0.49-0.08-0.97l-3.12-11.29q-0.09-0.36-0.34-0.66-0.24-0.29-0.56-0.46-0.33-0.17-0.73-0.21-0.37-0.04-0.73 0.1z"/>
		<path class="s63" d="m881.78 1175.74l-3.87 13.87q-0.1 0.32-0.06 0.65 0.04 0.32 0.19 0.62 0.13 0.3 0.37 0.54 0.24 0.22 0.54 0.36c15.22 6.48 41.46 8.72 53.48-5.33q8.24-9.65 4.78-23.24c-3.1-12.18-17.75-17.12-28.35-20.8-5.38-1.87-10.84-9.21-4.21-13.57 7.2-4.73 19.54-1.42 26.06 2.6q0.06 0.04 0.11 0.04 0.08 0.02 0.13-0.02 0.06-0.02 0.12-0.08 0.03-0.03 0.05-0.11l4.28-15.4q0.04-0.11 0.02-0.24 0-0.13-0.06-0.25-0.05-0.11-0.13-0.18-0.09-0.1-0.2-0.13c-16.54-6.92-44.28-7.72-52.67 11.21-6.06 13.7 1.02 27.91 15.06 33.22q13.76 5.19 16.11 7.06c6.32 4.99 1.95 12.26-4.8 13.35q-11.72 1.87-25.14-4.98-0.26-0.13-0.54-0.13-0.28-0.01-0.55 0.1-0.26 0.13-0.46 0.33-0.19 0.23-0.26 0.51z"/>
		<path class="s63" d="m1114.64 1113.05q0-0.23-0.1-0.43-0.07-0.21-0.24-0.38-0.17-0.17-0.37-0.24-0.21-0.09-0.43-0.09l-20.3-0.04q-0.23 0-0.43 0.09-0.23 0.08-0.38 0.25-0.17 0.15-0.26 0.37-0.07 0.21-0.07 0.43l-0.15 81.05q0 0.22 0.09 0.43 0.07 0.2 0.24 0.37 0.17 0.17 0.38 0.24 0.2 0.1 0.43 0.1l20.3 0.03q0.22 0 0.43-0.09 0.22-0.07 0.37-0.24 0.17-0.15 0.26-0.38 0.08-0.2 0.08-0.43z"/>
		<path class="s63" d="m962.04 1167.91q-2.79-0.41-5.52 0.28-2.73 0.71-5.01 2.43-2.26 1.74-3.73 4.2-1.48 2.49-1.91 5.37-0.43 2.86 0.2 5.66 0.68 2.82 2.32 5.14 1.67 2.34 4.06 3.83 2.39 1.48 5.18 1.91 2.78 0.41 5.51-0.28 2.73-0.71 5.01-2.43 2.26-1.74 3.74-4.21 1.47-2.48 1.9-5.36 0.43-2.86-0.2-5.66-0.67-2.83-2.32-5.15-1.66-2.33-4.06-3.83-2.39-1.47-5.17-1.9z"/>
		<path class="s63" d="m579.42 1096.22v31.03q0 0.39 0.15 0.77 0.15 0.37 0.43 0.65 0.28 0.28 0.65 0.43 0.38 0.15 0.77 0.15h13.07c2.39 0 4.78-0.41 6.99-1.23 2.22-0.81 4.24-2 5.94-3.52 1.68-1.49 3.03-3.29 3.96-5.25 0.92-1.96 1.39-4.05 1.39-6.18v-2.66c0-2.13-0.47-4.22-1.39-6.19-0.93-1.96-2.28-3.75-3.96-5.25-1.7-1.51-3.72-2.71-5.94-3.51-2.21-0.82-4.6-1.24-6.99-1.24h-13.07q-0.39 0-0.77 0.15-0.37 0.15-0.65 0.43-0.28 0.28-0.43 0.66-0.15 0.37-0.15 0.76z"/>
		<path class="s63" d="m1029.76 1146.86q11.21-0.02 12.76-0.13 0.25-0.02 0.47-0.13 0.22-0.13 0.36-0.34 0.15-0.19 0.18-0.43 0.06-0.24-0.02-0.48l-13.27-48.77q-0.02-0.02-0.02-0.04-0.01-0.02-0.01-0.04-0.02-0.01-0.04-0.01 0-0.02-0.02-0.04-0.22-0.23-0.56-0.23-0.32 0-0.54 0.23-0.02 0.02-0.02 0.04-0.02 0-0.04 0.01 0 0.02-0.02 0.04 0 0.02-0.02 0.04l-12.97 48.84q-0.07 0.24-0.02 0.49 0.04 0.24 0.19 0.43 0.13 0.2 0.35 0.33 0.23 0.12 0.47 0.13 1.55 0.1 12.79 0.06z"/>
		<path class="s63" d="m252.32 1153.25c-0.13 12.23 4.41 26.56 19.25 26.71 14.84 0.15 19.64-14.11 19.78-26.32 0.11-12.22-4.42-26.56-19.26-26.71-14.86-0.14-19.66 14.12-19.77 26.32z"/>
		<path class="s63" d="m492.04 1144.77l30.61-0.23q0.28 0 0.53-0.11 0.26-0.11 0.45-0.3 0.2-0.2 0.3-0.47 0.11-0.24 0.11-0.52v-0.45c-0.02-2.28-0.47-4.54-1.31-6.65-0.84-2.11-2.08-4.02-3.63-5.63-1.55-1.61-3.38-2.88-5.4-3.74-2-0.86-4.17-1.29-6.34-1.27h-0.33c-2.17 0.02-4.32 0.49-6.32 1.37-2 0.89-3.81 2.18-5.35 3.81-1.51 1.63-2.71 3.55-3.53 5.66-0.82 2.13-1.23 4.4-1.21 6.68v0.44q0 0.28 0.11 0.55 0.11 0.26 0.3 0.45 0.2 0.2 0.47 0.31 0.26 0.1 0.54 0.1z"/>
		<path class="s63" d="m700.97 1155.64c-7.44 0.34-18.11 1.11-23.08 6.12q-6.45 6.52-1.57 13.98 2.28 3.49 6 3.9 15.77 1.82 19.32-13.6 1.16-5.01 0.62-9.31-0.04-0.23-0.15-0.45-0.11-0.21-0.28-0.35-0.19-0.15-0.41-0.23-0.22-0.07-0.45-0.06z"/>
		<path class="s63" d="m818.56 1144.73l30.32-0.11q0.26 0 0.52-0.1 0.24-0.11 0.43-0.3 0.19-0.18 0.3-0.43 0.09-0.26 0.09-0.52l-0.01-0.71c0-2.26-0.45-4.49-1.28-6.56-0.84-2.07-2.05-3.96-3.58-5.55-1.54-1.59-3.35-2.84-5.33-3.7-2-0.86-4.15-1.29-6.3-1.29h-0.15c-2.15 0-4.3 0.45-6.28 1.33-2 0.85-3.79 2.13-5.33 3.73-1.51 1.59-2.71 3.5-3.53 5.57-0.82 2.1-1.23 4.32-1.23 6.58l0.01 0.71q0 0.26 0.1 0.53 0.11 0.24 0.3 0.43 0.18 0.18 0.43 0.3 0.26 0.09 0.52 0.09z"/>
	</g>
	<path class="s64" d="m575.66 120.19l-3.12 0.11q-0.18 0-0.35 0.09-0.17 0.08-0.3 0.21-0.13 0.13-0.19 0.32-0.07 0.16-0.06 0.35c2.9 50.9 2.08 98.88 7.91 152.51q-45.61-3.09-90.91 3.29 0.05-77.99 2.99-156.43 41.75-4.55 84.03-0.45z"/>
	<path class="s65" d="m793.44 134.41q-3.53 1.29 2.47 6.43 12.05 10.34 23.59 21.25 17.47 16.55 41.79 49.55-27.89 3.82-53.72 15.13c-51.91-49.95-115.57-82.56-185.25-99.61q4.07 0.32 7.27-1.5 0.09-0.05 0.19-0.11 0.09-0.04 0.18-0.07 0.11-0.06 0.21-0.1 0.11-0.03 0.2-0.05 8.38-2.36 10.77-2.68c50.19-6.82 102.64-0.65 152.3 11.76z"/>
	<path class="s66" d="m575.66 120.19q19.97 1.92 28.79 3.7 13.68 2.75 17.87 3.27c69.68 17.05 133.34 49.66 185.25 99.61 72.8 70.65 112.62 162.33 113.27 264.5l-1.08 1.27q-0.1 0.11-0.23 0.17-0.13 0.04-0.28 0.04-0.15-0.02-0.26-0.11-0.11-0.08-0.19-0.21l-19.53-39.4q-24.41-39.1-58.34-69.53l-18.37-15.86q-42.28-34.22-91.68-56.14-15.61-7.28-38.52-15.14-45.91-15.76-91.99-20.12l-20.82-2.46c-5.83-53.63-5.01-101.61-7.91-152.51q-0.01-0.19 0.06-0.35 0.06-0.19 0.19-0.32 0.13-0.13 0.3-0.21 0.17-0.09 0.35-0.09z"/>
	<path class="s67" d="m491.63 120.64q-2.94 78.44-2.99 156.43-41.46 6.65-81.54 19.88-4.11-48.35-7.83-115.17-0.95-17.14-5.53-37.29 47.23-18.17 97.89-23.85z"/>
	<path class="s68" d="m1087.85 659.89q-11.29-31.59-31.18-52.69-16.95-18-34.41-34.98c-23.34-22.69-43.59-48.65-56.5-78.74q-9.44-22.02-14.38-45.98c-8.8-85.71-38.67-166.47-90.09-235.86q-24.32-33-41.79-49.55-11.54-10.91-23.59-21.25-6-5.14-2.47-6.43 134.11 37.25 220.2 146.11 69.46 87.82 86.02 198.99 13.59 91.11-11.81 180.38z"/>
	<path class="s69" d="m393.74 144.49q4.58 20.15 5.53 37.29 3.72 66.82 7.83 115.17l-38.78 14.28c-25.16-39.19-49.95-70.93-80.68-107.73q43.76-33.14 94.27-54.43 5.85-2.47 11.83-4.58z"/>
	<path class="s70" d="m287.64 203.5c30.73 36.8 55.52 68.54 80.68 107.73l-8.68 4.38q-44.82 21.18-84.63 51.14-10.45-22.73-22.71-39.91-25.03-35.08-36.62-52.35 3.22-4.4 6.66-8.43 29.49-34.71 65.3-62.56z"/>
	<path class="s71" d="m861.29 211.64c51.42 69.39 81.29 150.15 90.09 235.86q4.53 57.86-4 114.86-8.69 6.18-18.24 10.43-9.35 4.16-12.41 13.27-2.58 7.7-3.63 18.05l0.84-45.38q6.42-33.22 6.9-67.46c-0.65-102.17-40.47-193.85-113.27-264.5q25.83-11.31 53.72-15.13z"/>
	<path class="s71" d="m579.55 273.78l20.82 2.46q33.65 11.35 60.36 25.48 13.08 6.92 25.92 17.57-4.5 0.82-8.74 0.34-48.73-5.48-96.15 8.22c-48.94-11.94-106.47-11.42-153.26 8.94-24.91 10.84-50.09 31.9-56.48 58.39-6.54 27.03 9.98 46.84 28.54 63.94q-16.26 22.58-24.19 38.13-6.22 12.19-12.56 24.04-22.67-31.12-31.23-67.68-3.65-15.61-4.88-38.94-1.38-26-4.22-47.23-0.04-0.26-0.02-0.54 0.02-0.26 0.07-0.53 0.08-0.26 0.19-0.5 0.11-0.24 0.26-0.47 14.23-19.57 35.23-40.33c2.83-2.77 4.72-6.68 0.43-9.46l8.68-4.38 38.78-14.28q40.08-13.23 81.54-19.88 45.3-6.38 90.91-3.29z"/>
	<path class="s72" d="m215.68 274.49q11.59 17.27 36.62 52.35 12.26 17.18 22.71 39.91-5.37 4.33-10.95 8.82-50.81 40.64-84.85 95.96-20.65-24.24-38.29-50.39c14.71-52.78 39.96-103.96 74.76-146.65z"/>
	<path class="s73" d="m730.88 311.5l-36.66 13.71-7.57-5.92q-12.84-10.65-25.92-17.57-26.71-14.13-60.36-25.48 46.08 4.36 91.99 20.12 22.91 7.86 38.52 15.14z"/>
	<path class="s72" d="m822.56 367.64l-84.45 8.38q-17.74-28.75-43.89-50.81l36.66-13.71q49.4 21.92 91.68 56.14z"/>
	<path class="s74" d="m359.64 315.61c4.29 2.78 2.4 6.69-0.43 9.46q-21 20.76-35.23 40.33-0.15 0.23-0.26 0.47-0.11 0.24-0.19 0.5-0.05 0.27-0.07 0.53-0.02 0.28 0.02 0.54 2.84 21.23 4.22 47.23 1.23 23.33 4.88 38.94 8.56 36.56 31.23 67.68-1.79 4.88-7.81 18.13-5.21 11.53-9.48 29.5l-4.58 7.68-35.32-32.53-27.65-29.51q-0.18-0.2-0.39-0.43-0.19-0.2-0.37-0.43-0.19-0.22-0.36-0.45-0.19-0.24-0.35-0.46l-8.15-11.07q-0.27-0.36-0.66-0.49-0.41-0.15-0.82-0.03-0.43 0.11-0.71 0.43-0.28 0.31-0.34 0.74-6.56 51.05 0.26 99.18c-28.05 7.03-50.93 8.75-84.46 11.31q-22.3 1.72-48.19 6.73l1.46-23.01q2.39-5.68 2.93-16.41 0.53-10.39 6.66-31.18 9.29-31.57 24.09-61.01 2.86-5.7 9.64-16.45 34.04-55.32 84.85-95.96 5.58-4.49 10.95-8.82 39.81-29.96 84.63-51.14z"/>
	<path class="s65" d="m581.76 327.85q-42.56 12.82-75.91 32.95-61.44 37.09-105.29 98.32c-18.56-17.1-35.08-36.91-28.54-63.94 6.39-26.49 31.57-47.55 56.48-58.39 46.79-20.36 104.32-20.88 153.26-8.94z"/>
	<path class="s70" d="m840.93 383.5q-45.86 5.64-90.69 16.2l-12.13-23.68 84.45-8.38z"/>
	<path class="s75" d="m899.27 453.03q-47.38 7.1-93.72 17.25c-10.58 2.32-24.75 4.77-37.18 6.71q-0.18 0.04-0.37 0.13-0.17 0.09-0.3 0.24-0.13 0.15-0.2 0.32-0.08 0.19-0.1 0.39l-0.41 5.89q0.52-43.6-16.75-84.26 44.83-10.56 90.69-16.2 33.93 30.43 58.34 69.53z"/>
	<path class="s73" d="m140.92 421.14q17.64 26.15 38.29 50.39-6.78 10.75-9.64 16.45-14.8 29.44-24.09 61.01-6.13 20.79-6.66 31.18-0.54 10.73-2.93 16.41-18.92-88.94 5.03-175.44z"/>
	<path class="s76" d="m1087.85 659.89q-24.24 83.51-80.21 151.31-13.45-22.83-26.37-36.77-23.57-25.44-47.16-50.86-15.21-16.37-22.15-37.35c16.99-39.32 29.46-81.34 35.42-123.86q8.53-57 4-114.86 4.94 23.96 14.38 45.98c12.91 30.09 33.16 56.05 56.5 78.74q17.46 16.98 34.41 34.98 19.89 21.1 31.18 52.69z"/>
	<path class="s77" d="m899.27 453.03l19.53 39.4q0.08 0.13 0.19 0.21 0.11 0.09 0.26 0.11 0.15 0 0.28-0.04 0.13-0.06 0.23-0.17l1.08-1.27q-0.48 34.24-6.9 67.46-7.38 28.13-13.77 44.93-22.23 58.55-66.34 107.65-16.09-23.61-30.62-39.67-25.86-28.56-32.65-36.61-20.19-23.95-33.35-52.69 28.17-44.75 29.78-98.38l0.41-5.89q0.02-0.2 0.1-0.39 0.07-0.17 0.2-0.32 0.13-0.15 0.3-0.24 0.19-0.09 0.37-0.13c12.43-1.94 26.6-4.39 37.18-6.71q46.34-10.15 93.72-17.25z"/>
	<path class="s78" d="m306.62 544.07q1.4 22.77 4.07 45.24c7.7 64.8 32.02 127.29 65.7 183.06q-18.26-10.99-28.46-20.03-9.31-8.23-18.6-16.51-6.17-5.49-10.88-10.54-5.05-5.42-10.15-11.27-10.11-13.05-13.46-21.65-5.03-12.86-11.1-25.25-11.1-32-16.66-65.57-6.82-48.13-0.26-99.18 0.06-0.43 0.34-0.74 0.28-0.32 0.71-0.43 0.41-0.12 0.82 0.03 0.39 0.13 0.66 0.49l8.15 11.07q0.16 0.22 0.35 0.46 0.17 0.23 0.36 0.45 0.18 0.23 0.37 0.43 0.21 0.23 0.39 0.43z"/>
	<path class="s73" d="m306.62 544.07l35.32 32.53 2.81 2.32q1.85 2.28 4.13 4.24 38.07 32.77 82.78 54.86c29.29 33.1 58.38 70.13 84.73 101.4 28.56 33.91 45.82 55.18 70.96 89.5q-107.2 4.97-200.02-49.61-7.97-4.67-10.94-6.94c-33.68-55.77-58-118.26-65.7-183.06q-2.67-22.47-4.07-45.24z"/>
	<path class="s79" d="m913.94 558.73l-0.84 45.38c-1.79 19.65-3.27 40.77-6.95 58.88q-6.3 30.9-18.26 60.09l-15.16 21.05-6.79 4.47q-0.2 0.13-0.41 0.28-0.18 0.15-0.37 0.3-0.19 0.17-0.37 0.33-0.19 0.17-0.36 0.34-21.63 22.28-44.24 40.21-32.83 25.98-73.01 44.18c-26.49 12-53.01 21.46-82.38 27.48q-62.74 13.55-126.54 5.55-64.22-8.88-120.28-40.56-34.07-19.48-61.42-46.88-27.59-26.8-47.21-59.87-2.7-4.52-1.05-5.94 5.1 5.85 10.15 11.27 4.71 5.05 10.88 10.54 9.29 8.28 18.6 16.51 10.2 9.04 28.46 20.03 2.97 2.27 10.94 6.94 92.82 54.58 200.02 49.61 52.99-3.31 102.97-21.09 56.88-20.99 103.53-58.88 21.5-17.7 39.98-37.64 44.11-49.1 66.34-107.65 6.39-16.8 13.77-44.93z"/>
	<path class="s65" d="m947.38 562.36c-5.96 42.52-18.43 84.54-35.42 123.86q-11.62 26.81-26.33 51.97-0.9-7.8 2.26-15.11 11.96-29.19 18.26-60.09c3.68-18.11 5.16-39.23 6.95-58.88q1.05-10.35 3.63-18.05 3.06-9.11 12.41-13.27 9.55-4.25 18.24-10.43z"/>
	<path class="s80" d="m346.52 568.92l-1.77 10-2.81-2.32z"/>
	<path class="s69" d="m737.21 582.34q13.16 28.74 33.35 52.69 6.79 8.05 32.65 36.61 14.53 16.06 30.62 39.67-18.48 19.94-39.98 37.64-53.94-57.79-111.64-111.77 33.1-21.97 55-54.84z"/>
	<path class="s71" d="m267.08 601.55q5.56 33.57 16.66 65.57c-32.67 4.45-60.08 4.81-90.43 5.4q-27.67 0.55-55.14 4.86-4.66-28.78-3.74-57.79 25.89-5.01 48.19-6.73c33.53-2.56 56.41-4.28 84.46-11.31z"/>
	<path class="s70" d="m682.21 637.18q57.7 53.98 111.64 111.77-46.65 37.89-103.53 58.88c-20.19-25.64-39.12-45.23-59.89-66.97q-29.89-31.29-49.18-70 55.12-4.56 100.96-33.68z"/>
	<path class="s72" d="m581.25 670.86q19.29 38.71 49.18 70c20.77 21.74 39.7 41.33 59.89 66.97q-49.98 17.78-102.97 21.09c-25.14-34.32-42.4-55.59-70.96-89.5-26.35-31.27-55.44-68.3-84.73-101.4 47.09 23.74 96.64 36.28 149.59 32.84z"/>
	<path class="s65" d="m308.3 714.02q-1.65 1.42 1.05 5.94 19.62 33.07 47.21 59.87-40.86-5.57-82.06-6.22-52.86-0.86-105.98 0.28c-14.39-30.13-25.83-63.29-30.35-96.51q27.47-4.31 55.14-4.86c30.35-0.59 57.76-0.95 90.43-5.4q6.07 12.39 11.1 25.25 3.35 8.6 13.46 21.65z"/>
	<path class="s81" d="m911.96 686.22q6.94 20.98 22.15 37.35 23.59 25.42 47.16 50.86 12.92 13.94 26.37 36.77-42.41 51.7-98.97 88.28c-22.35-32.4-47.1-59.22-76.09-86.45l28.73-37.82q13.59-17.75 24.32-37.02 14.71-25.16 26.33-51.97z"/>
	<path class="s71" d="m887.89 723.08q-3.16 7.31-2.26 15.11-10.73 19.27-24.32 37.02l11.42-31.08z"/>
	<path class="s74" d="m872.73 744.13l-11.42 31.08-28.73 37.82q-66.88 77.55-159.27 123.62 1.81-38.65-8.51-74.93c29.37-6.02 55.89-15.48 82.38-27.48q40.18-18.2 73.01-44.18 22.61-17.93 44.24-40.21 0.17-0.17 0.36-0.34 0.18-0.16 0.37-0.33 0.19-0.15 0.37-0.3 0.21-0.15 0.41-0.28z"/>
	<path class="s78" d="m356.56 779.83q27.35 27.4 61.42 46.88 14.13 71.63 13.59 145.23-71.12-12.41-132.11-51.51-68.17-43.7-111.82-112-10.59-16.6-19.12-34.54 53.12-1.14 105.98-0.28 41.2 0.65 82.06 6.22z"/>
	<path class="s82" d="m832.58 813.03c28.99 27.23 53.74 54.05 76.09 86.45-87.14 57.53-195.08 78.15-298.11 62.2q33.59-10.5 62.75-25.03 92.39-46.07 159.27-123.62z"/>
	<path class="s65" d="m417.98 826.71q56.06 31.68 120.28 40.56 12.64 52.67 15.44 106.66-61.03 9.47-122.13-1.99 0.54-73.6-13.59-145.23z"/>
	<path class="s71" d="m664.8 861.72q10.32 36.28 8.51 74.93-29.16 14.53-62.75 25.03-27.33 7.8-56.86 12.25-2.8-53.99-15.44-106.66 63.8 8 126.54-5.55z"/>
	<path fill-rule="evenodd" class="s83" d="m1103.79 1098.49c-7.34 0-13.29-5.94-13.29-13.29 0-7.35 5.95-13.29 13.29-13.29 7.35 0 13.29 5.94 13.29 13.29 0 7.35-5.94 13.29-13.29 13.29z"/>
	<path class="s83" d="m611.85 1143.29c1.23 1.63 3.42 2.58 4.54 4.54q0.99 1.74 32.23 45.44 0.2 0.3 0.24 0.66 0.02 0.37-0.15 0.69-0.17 0.31-0.47 0.52-0.31 0.19-0.69 0.19h-22.75q-0.59 0-1.17-0.13-0.58-0.13-1.13-0.4-0.52-0.26-0.99-0.65-0.46-0.37-0.82-0.84-9.23-11.98-14.8-22.26-8.28-15.31-8.54-15.74-5.44-9.25-16.6-7.18-0.23 0.04-0.43 0.17-0.21 0.11-0.36 0.3-0.15 0.19-0.24 0.39-0.08 0.22-0.08 0.47v44.43q0 0.26-0.09 0.52-0.11 0.24-0.3 0.43-0.18 0.19-0.43 0.3-0.26 0.09-0.52 0.09h-20.39q-0.19 0-0.38-0.07-0.17-0.08-0.32-0.21-0.13-0.13-0.2-0.3-0.08-0.18-0.08-0.37v-113.98q0-0.23 0.08-0.41 0.07-0.21 0.2-0.38 0.15-0.15 0.34-0.26 0.19-0.09 0.39-0.13 24.88-3.87 47.89-1.57c5.33 0.54 15.31 3.78 19.81 7.01q13.69 9.78 11.39 27.85-2.71 21.37-24.66 29.14-0.26 0.09-0.44 0.28-0.19 0.21-0.27 0.45-0.07 0.26-0.02 0.52 0.04 0.28 0.21 0.49zm-32.43-47.07v31.03q0 0.39 0.15 0.77 0.15 0.37 0.43 0.65 0.28 0.28 0.65 0.43 0.38 0.15 0.77 0.15h13.07c2.39 0 4.78-0.41 6.99-1.23 2.22-0.81 4.24-2 5.94-3.52 1.68-1.49 3.03-3.29 3.96-5.25 0.92-1.96 1.39-4.05 1.39-6.18v-2.66c0-2.13-0.47-4.22-1.39-6.19-0.93-1.96-2.28-3.75-3.96-5.25-1.7-1.51-3.72-2.71-5.94-3.51-2.21-0.82-4.6-1.24-6.99-1.24h-13.07q-0.39 0-0.77 0.15-0.37 0.15-0.65 0.43-0.28 0.28-0.43 0.66-0.15 0.37-0.15 0.76z"/>
	<path class="s83" d="m166.06 1123.78q21.3 0 24.03-0.1 0.13 0 0.27-0.07 0.13-0.06 0.22-0.15 0.09-0.11 0.15-0.25 0.06-0.13 0.06-0.28v-44.63q0-0.23 0.07-0.43 0.09-0.19 0.24-0.36 0.17-0.15 0.36-0.24 0.2-0.07 0.43-0.07h20.65q0.19 0 0.38 0.07 0.16 0.08 0.31 0.21 0.13 0.13 0.21 0.3 0.07 0.18 0.07 0.37v116.11q0 0.19-0.07 0.38-0.08 0.16-0.21 0.29-0.13 0.14-0.3 0.21-0.18 0.07-0.37 0.07h-20.65q-0.23 0-0.43-0.09-0.21-0.07-0.36-0.24-0.17-0.15-0.24-0.36-0.09-0.2-0.09-0.43v-48.89q0-0.15-0.06-0.3-0.06-0.13-0.17-0.25-0.11-0.11-0.24-0.18-0.15-0.06-0.3-0.06-12.71-0.09-23.96-0.09-11.24 0-23.95 0.09-0.15 0-0.3 0.06-0.15 0.05-0.26 0.17-0.11 0.11-0.17 0.26-0.05 0.15-0.05 0.3v48.89q0 0.23-0.1 0.43-0.07 0.21-0.24 0.36-0.15 0.17-0.35 0.24-0.21 0.09-0.43 0.09h-20.66q-0.19 0-0.37-0.07-0.17-0.07-0.3-0.21-0.13-0.13-0.21-0.29-0.07-0.19-0.07-0.38l0.02-116.11q0-0.19 0.07-0.37 0.08-0.17 0.21-0.3 0.15-0.13 0.31-0.21 0.19-0.07 0.38-0.07h20.65q0.23 0 0.43 0.07 0.19 0.09 0.36 0.24 0.15 0.17 0.24 0.36 0.08 0.2 0.08 0.43l-0.02 44.63q0 0.15 0.05 0.28 0.06 0.14 0.15 0.25 0.1 0.11 0.23 0.17 0.13 0.05 0.28 0.05 2.71 0.1 24.02 0.1z"/>
	<path class="s83" d="m1016.75 1077.31h27.51q0.1 0 0.19 0.02 0.09 0.03 0.17 0.09 0.07 0.06 0.13 0.13 0.05 0.08 0.07 0.17l36.9 116.73q0.04 0.13 0.02 0.26-0.02 0.13-0.11 0.24-0.08 0.12-0.19 0.17-0.13 0.08-0.26 0.08h-24.1q-0.09 0-0.18-0.04-0.1-0.02-0.17-0.08-0.08-0.07-0.13-0.15-0.06-0.07-0.08-0.16l-8.41-30.83q-0.02-0.09-0.07-0.16-0.06-0.08-0.13-0.15-0.08-0.06-0.17-0.08-0.1-0.04-0.19-0.04h-35.4q-0.09 0-0.19 0.04-0.09 0.02-0.17 0.08-0.07 0.07-0.13 0.15-0.05 0.07-0.07 0.16l-8.6 30.81q-0.02 0.09-0.07 0.17-0.06 0.07-0.13 0.15-0.08 0.05-0.17 0.07-0.1 0.04-0.19 0.04h-22.82q-0.13 0-0.26-0.08-0.12-0.05-0.19-0.17-0.09-0.11-0.11-0.24-0.02-0.13 0.02-0.26l37.12-116.71q0.02-0.09 0.07-0.17 0.06-0.07 0.13-0.13 0.08-0.06 0.17-0.09 0.09-0.02 0.19-0.02zm13.01 69.55q11.21-0.02 12.76-0.13 0.25-0.02 0.47-0.13 0.22-0.13 0.36-0.34 0.15-0.19 0.18-0.43 0.06-0.24-0.02-0.48l-13.27-48.77q-0.02-0.02-0.02-0.04-0.01-0.02-0.01-0.04-0.02-0.01-0.04-0.01 0-0.02-0.02-0.04-0.22-0.23-0.56-0.23-0.32 0-0.54 0.23-0.02 0.02-0.02 0.04-0.02 0-0.04 0.01 0 0.02-0.02 0.04 0 0.02-0.02 0.04l-12.97 48.84q-0.07 0.24-0.02 0.49 0.04 0.24 0.19 0.43 0.13 0.2 0.35 0.33 0.23 0.12 0.47 0.13 1.55 0.1 12.79 0.06z"/>
	<path class="s83" d="m735.03 1129.07q-0.41 0-0.81-0.17-0.37-0.15-0.67-0.45-0.3-0.3-0.45-0.69-0.17-0.4-0.17-0.81v-13.04q0-0.36 0.14-0.68 0.13-0.31 0.39-0.56 0.24-0.26 0.56-0.39 0.32-0.13 0.67-0.13h9.27q0.21 0 0.4-0.08 0.2-0.09 0.35-0.24 0.13-0.15 0.22-0.33 0.08-0.21 0.08-0.42v-16.35q0-0.23 0.07-0.45 0.08-0.21 0.21-0.39 0.13-0.17 0.32-0.3 0.18-0.13 0.41-0.19l19.46-5.29q0.24-0.07 0.5-0.02 0.24 0.04 0.45 0.19 0.21 0.17 0.32 0.39 0.11 0.23 0.11 0.49v21.1q0 0.32 0.13 0.62 0.11 0.3 0.34 0.52 0.22 0.23 0.52 0.34 0.3 0.13 0.62 0.13h16.39q0.41 0 0.8 0.17 0.38 0.15 0.68 0.45 0.3 0.3 0.45 0.67 0.16 0.39 0.16 0.8v13.27q0 0.38-0.15 0.71-0.13 0.36-0.39 0.62-0.26 0.26-0.62 0.39-0.33 0.15-0.71 0.15h-17.66q-0.17 0-0.34 0.08-0.15 0.05-0.28 0.17-0.11 0.13-0.16 0.28-0.08 0.16-0.08 0.33 0.02 25.76-0.06 27.48c-0.52 12.5 1.93 24.19 17.28 20.02q0.41-0.11 0.82-0.02 0.41 0.07 0.75 0.34 0.31 0.24 0.5 0.61 0.19 0.4 0.19 0.81v13.23q0 0.49-0.15 0.93-0.17 0.45-0.45 0.83-0.3 0.37-0.71 0.63-0.39 0.26-0.86 0.38c-9.08 2.24-22.9 3.14-30.45-3.39-8.41-7.29-8.82-16.52-8.78-27.51q0.09-22.37-0.14-33.83 0-0.28-0.11-0.54-0.11-0.27-0.32-0.45-0.18-0.21-0.44-0.3-0.27-0.11-0.55-0.11z"/>
	<path class="s79" d="m579.42 1096.22q0-0.39 0.15-0.76 0.15-0.38 0.43-0.66 0.28-0.28 0.65-0.43 0.38-0.15 0.77-0.15h13.07c2.39 0 4.78 0.42 6.99 1.24 2.22 0.8 4.24 2 5.94 3.51 1.68 1.5 3.03 3.29 3.96 5.25 0.92 1.97 1.39 4.06 1.39 6.19v2.66c0 2.13-0.47 4.22-1.39 6.18-0.93 1.96-2.28 3.76-3.96 5.25-1.7 1.52-3.72 2.71-5.94 3.52-2.21 0.82-4.6 1.23-6.99 1.23h-13.07q-0.39 0-0.77-0.15-0.37-0.15-0.65-0.43-0.28-0.28-0.43-0.65-0.15-0.38-0.15-0.77z"/>
	<path class="s79" d="m1029.59 1096.22q0.34 0 0.56 0.23 0.02 0.02 0.02 0.04 0.02 0 0.04 0.01 0 0.02 0.01 0.04 0 0.02 0.02 0.04l13.27 48.77q0.08 0.24 0.02 0.48-0.03 0.24-0.18 0.43-0.14 0.21-0.36 0.34-0.22 0.11-0.47 0.13-1.55 0.11-12.76 0.13-11.24 0.04-12.79-0.06-0.24-0.01-0.47-0.13-0.22-0.13-0.35-0.33-0.15-0.19-0.19-0.43-0.05-0.25 0.02-0.49l12.97-48.84q0.02-0.02 0.02-0.04 0.02-0.02 0.02-0.04 0.02-0.01 0.04-0.01 0-0.02 0.02-0.04 0.22-0.23 0.54-0.23z"/>
	<path class="s83" d="m273.83 1196.56c-27.18 1.76-46.2-16.37-45.23-44.06 0.86-24.87 16.5-40.37 41.44-42 27.19-1.73 46.22 16.4 45.25 44.06-0.86 24.88-16.5 40.39-41.46 42zm-21.51-43.31c-0.13 12.23 4.41 26.56 19.25 26.71 14.84 0.15 19.64-14.11 19.78-26.32 0.11-12.22-4.42-26.56-19.26-26.71-14.86-0.14-19.66 14.12-19.77 26.32z"/>
	<path class="s83" d="m330.13 1112.02h16.71q0.45 0 0.86 0.17 0.41 0.17 0.73 0.48 0.32 0.32 0.49 0.71 0.16 0.41 0.16 0.86v7.89q0 0.3 0.19 0.56 0.17 0.24 0.45 0.34 0.28 0.11 0.58 0.02 0.28-0.08 0.47-0.32 12.3-15.65 32.43-11.14c7.42 1.66 10.97 6.04 15.02 11.85q0.14 0.19 0.34 0.3 0.19 0.11 0.41 0.13 0.23 0.04 0.45-0.04 0.22-0.07 0.39-0.22 0.21-0.17 4.23-3.87 13.66-12.56 31.85-8c13.68 3.42 19.44 17.51 19.49 30.58q0.1 25.98-0.03 51.42 0 0.3-0.12 0.58-0.13 0.26-0.33 0.48-0.21 0.21-0.49 0.32-0.26 0.11-0.56 0.11h-20.04q-0.18 0-0.35-0.07-0.19-0.08-0.32-0.21-0.13-0.13-0.21-0.3-0.07-0.18-0.07-0.37-0.02-2.43 0.02-43.49c0-10.75-1.93-24.66-16.51-22.14q-12.2 2.1-12.69 15.74-0.48 13.35-0.13 49.11 0 0.33-0.13 0.65-0.11 0.3-0.35 0.54-0.25 0.24-0.55 0.38-0.31 0.13-0.65 0.13h-19.51q-0.27 0-0.51-0.1-0.24-0.11-0.43-0.3-0.19-0.18-0.28-0.43-0.09-0.24-0.09-0.5 0.31-29.37 0.02-46.43c-0.15-8.43-2.21-17.72-12.3-18.54q-9.85-0.81-14.4 5.96-2.99 4.41-2.78 15.51 0.19 10.1 0.09 43.14 0 0.34-0.13 0.66-0.13 0.32-0.37 0.56-0.25 0.24-0.56 0.37-0.34 0.13-0.68 0.13h-19.17q-0.3 0-0.58-0.11-0.26-0.11-0.49-0.32-0.2-0.22-0.32-0.48-0.11-0.28-0.11-0.58v-80.86q0-0.17 0.08-0.34 0.05-0.15 0.16-0.28 0.13-0.11 0.28-0.17 0.17-0.07 0.34-0.07z"/>
	<path class="s83" d="m534.99 1176.5q0.36-0.11 0.73-0.09 0.39 0.04 0.71 0.21 0.34 0.18 0.58 0.48 0.24 0.28 0.34 0.66l3.08 11.34q0.13 0.49 0.07 0.97-0.05 0.51-0.29 0.94-0.23 0.45-0.62 0.77-0.39 0.31-0.86 0.48c-18.47 6.15-42.28 7.85-57.87-4.8-12.11-9.85-14.58-28.28-11.85-42.71q3.7-19.61 19.78-29.18 15.06-8.97 35.34-2.45c17.63 5.7 22.62 29.31 19.8 45.98q-0.04 0.19-0.14 0.36-0.09 0.17-0.24 0.28-0.15 0.13-0.34 0.19-0.16 0.07-0.37 0.07h-52.13q-0.28 0-0.54 0.11-0.24 0.13-0.43 0.34-0.17 0.2-0.24 0.48-0.08 0.27-0.04 0.55c3.59 21.83 30.67 19.9 45.53 15.02zm-42.95-31.73l30.61-0.23q0.28 0 0.53-0.11 0.26-0.11 0.45-0.3 0.2-0.2 0.3-0.47 0.11-0.24 0.11-0.52v-0.45c-0.02-2.28-0.47-4.54-1.31-6.65-0.84-2.11-2.08-4.02-3.63-5.63-1.55-1.61-3.38-2.88-5.4-3.74-2-0.86-4.17-1.29-6.34-1.27h-0.33c-2.17 0.02-4.32 0.49-6.32 1.37-2 0.89-3.81 2.18-5.35 3.81-1.51 1.63-2.71 3.55-3.53 5.66-0.82 2.13-1.23 4.4-1.21 6.68v0.44q0 0.28 0.11 0.55 0.11 0.26 0.3 0.45 0.2 0.2 0.47 0.31 0.26 0.1 0.54 0.1z"/>
	<path class="s83" d="m703.78 1186.26q0-0.24-0.14-0.43-0.14-0.2-0.37-0.3-0.22-0.07-0.45-0.02-0.24 0.06-0.39 0.25c-13.53 15.32-45.53 17.21-49.87-8.04-1.89-10.95 2.28-21.63 12.15-27.78 10.17-6.3 20.28-6.86 33.94-7.92q0.34-0.04 0.66-0.19 0.32-0.15 0.56-0.39 0.22-0.24 0.35-0.58 0.14-0.32 0.14-0.65 0.03-4.43-1.89-7.87c-3.27-5.87-15.26-5.72-20.49-4.53q-8.37 1.91-16.8 6.84-0.06 0.02-0.11 0.04-0.06 0-0.1-0.02-0.05-0.03-0.09-0.07-0.04-0.04-0.06-0.1l-4.3-15.73q-0.03-0.1-0.02-0.21 0-0.11 0.06-0.2 0.04-0.1 0.13-0.17 0.08-0.1 0.17-0.13 23.42-11.05 46.5-5.52 3.99 0.96 10.86 5.87 0.19 0.13 0.38 0.3 0.19 0.15 0.35 0.32 0.17 0.17 0.34 0.33 0.15 0.19 0.3 0.38 8.39 11.31 8.47 23.92c0.16 24.77-0.62 40.34 1.14 50.3q0.03 0.23-0.02 0.47-0.06 0.22-0.21 0.41-0.17 0.17-0.37 0.28-0.21 0.09-0.45 0.09h-18.77q-0.31 0-0.61-0.11-0.3-0.13-0.53-0.35-0.22-0.23-0.33-0.51-0.13-0.3-0.13-0.61zm-2.81-30.62c-7.44 0.34-18.11 1.1-23.08 6.11q-6.45 6.52-1.57 13.98 2.28 3.5 6 3.91 15.77 1.81 19.32-13.61 1.16-5.01 0.62-9.31-0.04-0.22-0.15-0.45-0.11-0.2-0.28-0.35-0.19-0.15-0.41-0.22-0.22-0.08-0.45-0.06z"/>
	<path class="s83" d="m861.36 1176.36q0.36-0.14 0.73-0.1 0.4 0.04 0.73 0.21 0.32 0.17 0.56 0.46 0.25 0.3 0.34 0.66l3.12 11.29q0.13 0.48 0.08 0.97-0.04 0.51-0.28 0.94-0.25 0.44-0.62 0.76-0.39 0.32-0.86 0.49c-18.37 6.2-42.08 8-57.66-4.54-12.12-9.76-14.64-28.1-11.99-42.49q3.59-19.55 19.57-29.14 14.98-9.01 35.2-2.6c17.59 5.61 22.65 29.1 19.91 45.72q-0.04 0.19-0.13 0.36-0.1 0.15-0.23 0.28-0.15 0.13-0.33 0.18-0.19 0.08-0.38 0.08l-51.92 0.22q-0.28 0-0.55 0.11-0.24 0.14-0.43 0.34-0.16 0.21-0.24 0.49-0.07 0.26-0.04 0.54c3.69 21.72 30.64 19.7 45.42 14.77zm-42.8-31.63l30.32-0.11q0.26 0 0.52-0.1 0.24-0.11 0.43-0.3 0.19-0.18 0.3-0.43 0.09-0.26 0.09-0.52l-0.01-0.71c0-2.26-0.45-4.49-1.28-6.56-0.84-2.07-2.05-3.96-3.58-5.55-1.54-1.59-3.35-2.84-5.33-3.7-2-0.86-4.15-1.29-6.3-1.29h-0.15c-2.15 0-4.3 0.45-6.28 1.33-2 0.85-3.79 2.13-5.33 3.73-1.51 1.59-2.71 3.5-3.53 5.57-0.82 2.1-1.23 4.32-1.23 6.58l0.01 0.71q0 0.26 0.1 0.53 0.11 0.24 0.3 0.43 0.18 0.18 0.43 0.3 0.26 0.09 0.52 0.09z"/>
	<path class="s83" d="m881.78 1175.74q0.07-0.28 0.26-0.51 0.2-0.2 0.46-0.33 0.27-0.11 0.55-0.1 0.28 0 0.54 0.13 13.42 6.85 25.14 4.98c6.75-1.09 11.12-8.36 4.8-13.35q-2.35-1.87-16.11-7.06c-14.04-5.31-21.12-19.52-15.06-33.22 8.39-18.93 36.13-18.13 52.67-11.21q0.11 0.03 0.2 0.13 0.08 0.07 0.13 0.18 0.06 0.12 0.06 0.25 0.02 0.13-0.02 0.24l-4.28 15.4q-0.02 0.08-0.05 0.11-0.06 0.06-0.12 0.08-0.05 0.04-0.13 0.02-0.05 0-0.11-0.04c-6.52-4.02-18.86-7.33-26.06-2.6-6.63 4.36-1.17 11.7 4.21 13.57 10.6 3.68 25.25 8.62 28.35 20.8q3.46 13.59-4.78 23.24c-12.02 14.05-38.26 11.81-53.48 5.33q-0.3-0.14-0.54-0.36-0.24-0.24-0.37-0.54-0.15-0.3-0.19-0.62-0.04-0.33 0.06-0.65z"/>
	<path fill-rule="evenodd" class="s83" d="m1093.2 1111.87l20.3 0.04c0.63 0 1.14 0.5 1.14 1.14l-0.15 81.04c0 0.64-0.51 1.14-1.14 1.14l-20.3-0.03c-0.64 0-1.14-0.51-1.14-1.14l0.15-81.05c0-0.64 0.5-1.14 1.14-1.14z"/>
	<path class="s79" d="m492.04 1144.77q-0.28 0-0.54-0.1-0.27-0.11-0.47-0.31-0.19-0.19-0.3-0.45-0.11-0.27-0.11-0.55v-0.44c-0.02-2.28 0.39-4.55 1.21-6.68 0.82-2.11 2.02-4.03 3.53-5.66 1.54-1.63 3.35-2.92 5.35-3.81 2-0.88 4.15-1.35 6.32-1.37h0.33c2.17-0.02 4.34 0.41 6.34 1.27 2.02 0.86 3.85 2.13 5.4 3.74 1.55 1.61 2.79 3.52 3.63 5.63 0.84 2.11 1.29 4.37 1.31 6.65v0.45q0 0.28-0.11 0.52-0.1 0.27-0.3 0.47-0.19 0.19-0.45 0.3-0.25 0.11-0.53 0.11z"/>
	<path class="s79" d="m818.56 1144.73q-0.26 0-0.52-0.09-0.25-0.12-0.43-0.3-0.19-0.19-0.3-0.43-0.1-0.27-0.1-0.53l-0.01-0.71c0-2.26 0.41-4.48 1.23-6.58 0.82-2.07 2.02-3.98 3.53-5.57 1.54-1.6 3.33-2.88 5.33-3.73 1.98-0.88 4.13-1.33 6.28-1.33h0.15c2.15 0 4.3 0.43 6.3 1.29 1.98 0.86 3.79 2.11 5.33 3.7 1.53 1.59 2.74 3.48 3.58 5.55 0.83 2.07 1.28 4.3 1.28 6.56l0.01 0.71q0 0.26-0.09 0.52-0.11 0.25-0.3 0.43-0.19 0.19-0.43 0.3-0.26 0.1-0.52 0.1z"/>
	<path class="s79" d="m272.09 1126.93c14.84 0.15 19.37 14.49 19.26 26.71-0.14 12.21-4.94 26.47-19.78 26.32-14.84-0.15-19.38-14.48-19.25-26.71 0.11-12.2 4.91-26.46 19.77-26.32z"/>
	<path class="s79" d="m702.26 1156.73q0.54 4.3-0.62 9.31-3.55 15.42-19.32 13.6-3.72-0.41-6-3.9-4.88-7.46 1.57-13.98c4.97-5.01 15.64-5.78 23.08-6.12q0.23-0.01 0.45 0.06 0.22 0.08 0.41 0.23 0.17 0.14 0.28 0.35 0.11 0.22 0.15 0.45z"/>
	<path fill-rule="evenodd" class="s83" d="m973.79 1184.45c-1.21 7.98-8.44 13.46-16.16 12.28-7.72-1.18-12.99-8.58-11.76-16.54 1.21-7.98 8.45-13.46 16.17-12.28 7.72 1.17 12.99 8.58 11.75 16.54z"/>
</svg>